<?xml version="1.0" encoding="utf-8"?>
<!-- Generator: Adobe Illustrator 16.0.0, SVG Export Plug-In . SVG Version: 6.00 Build 0)  -->
<!DOCTYPE svg PUBLIC "-//W3C//DTD SVG 1.1//EN" "http://www.w3.org/Graphics/SVG/1.1/DTD/svg11.dtd">
<svg version="1.1" xmlns="http://www.w3.org/2000/svg" xmlns:xlink="http://www.w3.org/1999/xlink" x="0px" y="0px"
	 width="35.662px" height="47.604px" viewBox="0 0 35.662 47.604" enable-background="new 0 0 35.662 47.604" xml:space="preserve">
<g id="Calque_1">
	<g id="Calque_1_1_">
		<path fill="#C6C6C6" stroke="#000000" stroke-miterlimit="10" d="M26.054,23.477c0,1.487-0.372,2.887-1.033,4.108
			c-1.467,2.692-7.589,18.625-7.589,18.625s-6.127-15.933-7.589-18.625c-0.663-1.219-1.039-2.621-1.039-4.108
			c0-4.765,3.861-8.626,8.627-8.626C22.195,14.85,26.054,18.711,26.054,23.477z"/>
	</g>
	<g id="Calque_2" display="none">
		<path display="inline" fill="#FFFF00" stroke="#000000" stroke-miterlimit="10" d="M0.834,10.679l3.015,13.12l27.296,2.414
			l3.922-12.215L14.558,1.028C14.558,1.028,5.361,3.591,0.834,10.679z"/>
		
			<polygon display="inline" fill="#F9F9F9" stroke="#000000" stroke-width="0.5" stroke-linecap="round" stroke-miterlimit="10" points="
			30.545,13.62 35.067,13.997 31.146,26.212 3.85,23.799 0.834,10.679 		"/>
		
			<ellipse display="inline" fill="none" stroke="#000000" stroke-width="0.5" stroke-linecap="round" stroke-miterlimit="10" cx="8.825" cy="18.711" rx="2.613" ry="3.908"/>
		<path display="inline" fill="none" stroke="#000000" stroke-width="0.5" stroke-linecap="round" stroke-miterlimit="10" d="
			M19.675,15.738c0,1.583-0.857,2.867-1.915,2.867c-1.056,0-1.916-1.284-1.916-2.867c0-1.578,0.86-2.862,1.916-2.862
			C18.817,12.874,19.675,14.159,19.675,15.738z"/>
		<path display="inline" fill="none" stroke="#000000" stroke-width="0.5" stroke-linecap="round" stroke-miterlimit="10" d="
			M23.34,22.362c0,0.983-0.384,1.781-0.86,1.781c-0.469,0-0.854-0.798-0.854-1.781c0-0.98,0.387-1.779,0.854-1.779
			C22.956,20.581,23.34,21.38,23.34,22.362z"/>
		<path display="inline" fill="none" stroke="#000000" stroke-width="0.5" stroke-linecap="round" stroke-miterlimit="10" d="
			M31.042,16.583c0,0.98-0.384,1.778-0.859,1.778c-0.465,0-0.848-0.798-0.848-1.778c0-0.983,0.383-1.782,0.848-1.782
			C30.658,14.802,31.042,15.601,31.042,16.583z"/>
	</g>
	<g id="Calque_3" display="none">
		
			<image display="inline" overflow="visible" enable-background="new    " width="1280" height="769" xlink:href="253804D5.jpeg"  transform="matrix(1 0 0 0.9987 -619 -354.9998)">
		</image>
	</g>
	<g id="Calque_5">
		<path fill="#FFFFFF" d="M18.283,8.444"/>
	</g>
	<g>
		<g>
			<path d="M35.382,3.349l-0.201-0.876l-1.942-0.05l-0.05-1.942l-0.877-0.201c-2.125-0.485-5.123-0.334-8.021,0.404
				c-2.158,0.55-5.128,1.651-7.838,3.83c-2.656,0.069-6.6,1.854-8.707,3.96c-0.567,0.567-0.844,1.291-0.801,2.095
				c0.056,1.048,0.667,2.229,1.815,3.508c0.225,0.251,0.449,0.481,0.654,0.682c-0.698,2.171-0.946,4.234-0.873,6.021
				c-3.127-0.228-6.586,0.905-7.811,2.293c-0.537,0.611-0.701,1.335-0.449,1.987c0.476,1.229,1.783,1.463,3.047,1.689
				c1.297,0.234,2.768,0.498,3.925,1.655c1.157,1.157,1.421,2.628,1.654,3.925c0.228,1.265,0.462,2.572,1.691,3.048
				c0.201,0.078,0.408,0.116,0.618,0.116c0.47,0,0.947-0.193,1.369-0.566c1.388-1.224,2.521-4.682,2.294-7.809
				c0.2,0.007,0.402,0.012,0.609,0.012c1.639,0,3.482-0.267,5.412-0.886c0.208,0.215,0.45,0.452,0.716,0.689
				c1.279,1.148,2.46,1.759,3.508,1.814c0.054,0.003,0.108,0.005,0.161,0.005c0.739,0,1.406-0.277,1.934-0.806
				c2.129-2.128,3.928-6.128,3.963-8.784c2.156-2.698,3.248-5.648,3.794-7.794C35.716,8.474,35.866,5.474,35.382,3.349z
				 M9.257,10.448c-0.008-0.147,0.025-0.235,0.126-0.335c0.971-0.971,2.492-1.893,4.004-2.512c-1.297,1.577-2.293,3.19-3.036,4.782
				C9.761,11.698,9.285,10.965,9.257,10.448z M25.583,26.314c-0.1,0.101-0.188,0.133-0.334,0.125
				c-0.523-0.027-1.273-0.522-1.972-1.127c1.615-0.753,3.256-1.771,4.855-3.096C27.515,23.758,26.575,25.323,25.583,26.314z
				 M32.734,10.799c-0.215,0.84-0.521,1.817-0.959,2.851c-2.478-0.306-4.782-1.426-6.56-3.204c-1.26-1.259-2.177-2.75-2.729-4.429
				l-2.199,0.721c0.665,2.028,1.771,3.826,3.291,5.345c1.948,1.949,4.424,3.243,7.104,3.739c-0.642,1.083-1.443,2.168-2.446,3.171
				c-2.245,2.245-4.886,3.943-7.637,4.909c-2.379,0.836-4.831,1.113-6.903,0.779l-1.729-0.277l0.421,1.699
				c0.318,1.28,0.261,2.938-0.155,4.547c-0.269,1.04-0.607,1.751-0.87,2.161c-0.066-0.272-0.126-0.609-0.176-0.889
				c-0.264-1.47-0.625-3.481-2.296-5.152c-1.671-1.671-3.684-2.032-5.153-2.296c-0.279-0.05-0.615-0.11-0.889-0.176
				c0.411-0.263,1.122-0.602,2.161-0.871c1.609-0.416,3.267-0.473,4.548-0.155l1.7,0.423l-0.278-1.73
				c-0.333-2.071-0.057-4.522,0.779-6.903c0.966-2.75,2.664-5.391,4.91-7.636c2.673-2.673,5.931-3.92,8.192-4.497
				c2.458-0.626,4.604-0.701,6.061-0.535l0.058,2.287l2.288,0.06C33.434,6.195,33.36,8.342,32.734,10.799z"/>
		</g>
	</g>
	<g>
		<g>
			<path d="M8.892,26.771L8.892,26.771L8.892,26.771z"/>
		</g>
	</g>
</g>
<g id="Calque_1_-_copie">
	<g id="Calque_2_1_" display="none">
		<path display="inline" fill="#FFFF00" stroke="#000000" stroke-miterlimit="10" d="M0.834,10.679l3.015,13.12l27.296,2.414
			l3.922-12.215L14.558,1.028C14.558,1.028,5.361,3.591,0.834,10.679z"/>
		
			<polygon display="inline" fill="#F9F9F9" stroke="#000000" stroke-width="0.5" stroke-linecap="round" stroke-miterlimit="10" points="
			30.545,13.62 35.067,13.997 31.146,26.212 3.85,23.799 0.834,10.679 		"/>
		
			<ellipse display="inline" fill="none" stroke="#000000" stroke-width="0.5" stroke-linecap="round" stroke-miterlimit="10" cx="8.825" cy="18.711" rx="2.613" ry="3.908"/>
		<path display="inline" fill="none" stroke="#000000" stroke-width="0.5" stroke-linecap="round" stroke-miterlimit="10" d="
			M19.675,15.738c0,1.583-0.857,2.867-1.915,2.867c-1.056,0-1.916-1.284-1.916-2.867c0-1.578,0.86-2.862,1.916-2.862
			C18.817,12.874,19.675,14.159,19.675,15.738z"/>
		<path display="inline" fill="none" stroke="#000000" stroke-width="0.5" stroke-linecap="round" stroke-miterlimit="10" d="
			M23.34,22.362c0,0.983-0.384,1.781-0.86,1.781c-0.469,0-0.854-0.798-0.854-1.781c0-0.98,0.387-1.779,0.854-1.779
			C22.956,20.581,23.34,21.38,23.34,22.362z"/>
		<path display="inline" fill="none" stroke="#000000" stroke-width="0.5" stroke-linecap="round" stroke-miterlimit="10" d="
			M31.042,16.583c0,0.98-0.384,1.778-0.859,1.778c-0.465,0-0.848-0.798-0.848-1.778c0-0.983,0.383-1.782,0.848-1.782
			C30.658,14.802,31.042,15.601,31.042,16.583z"/>
	</g>
	<g id="Calque_3_1_" display="none">
		
			<image display="inline" overflow="visible" enable-background="new    " width="1280" height="769" xlink:href="253804D7.jpg"  transform="matrix(1 0 0 0.9987 -619 -354.9998)">
		</image>
	</g>
	<g id="Calque_5_1_">
		<path fill="#FFFFFF" d="M18.283,8.444"/>
	</g>
	<g>
		<g>
			<circle cx="26.679" cy="5.33" r="1.062"/>
		</g>
	</g>
	<g>
		<g>
			<path fill="#0033CC" d="M9.257,10.448c-0.008-0.147,0.025-0.235,0.126-0.335c0.971-0.971,2.492-1.893,4.004-2.512
				c-1.297,1.577-2.293,3.19-3.036,4.782C9.761,11.698,9.285,10.965,9.257,10.448z M25.583,26.314
				c-0.1,0.101-0.188,0.133-0.334,0.125c-0.523-0.027-1.273-0.522-1.972-1.127c1.615-0.753,3.256-1.771,4.855-3.096
				C27.515,23.758,26.575,25.323,25.583,26.314z M32.734,10.799c-0.215,0.84-0.521,1.817-0.959,2.851
				c-2.478-0.306-4.782-1.426-6.56-3.204c-1.26-1.259-2.177-2.75-2.729-4.429l-2.199,0.721c0.665,2.028,1.771,3.826,3.291,5.345
				c1.948,1.949,4.424,3.243,7.104,3.739c-0.642,1.083-1.443,2.168-2.446,3.171c-2.245,2.245-4.886,3.943-7.637,4.909
				c-2.379,0.836-4.831,1.113-6.903,0.779l-1.729-0.277l0.421,1.699c0.318,1.28,0.261,2.938-0.155,4.547
				c-0.269,1.04-0.607,1.751-0.87,2.161c-0.066-0.272-0.126-0.609-0.176-0.889c-0.264-1.47-0.625-3.481-2.296-5.152
				c-1.671-1.671-3.684-2.032-5.153-2.296c-0.279-0.05-0.615-0.11-0.889-0.176c0.411-0.263,1.122-0.602,2.161-0.871
				c1.609-0.416,3.267-0.473,4.548-0.155l1.7,0.423l-0.278-1.73c-0.333-2.071-0.057-4.522,0.779-6.903
				c0.966-2.75,2.664-5.391,4.91-7.636c2.673-2.673,5.931-3.92,8.192-4.497c2.458-0.626,4.604-0.701,6.061-0.535l0.058,2.287
				l2.288,0.06C33.434,6.195,33.36,8.342,32.734,10.799z"/>
		</g>
	</g>
	<g>
		<g>
			<path d="M8.892,26.771L8.892,26.771L8.892,26.771z"/>
		</g>
	</g>
	<g>
		<g>
			<path d="M-36.184,34.06L-36.184,34.06L-36.184,34.06z"/>
		</g>
	</g>
	<g>
		<g>
			<circle cx="26.679" cy="5.455" r="1.062"/>
		</g>
	</g>
</g>
</svg>
