<?xml version="1.0" encoding="utf-8"?>
<!-- Generator: Adobe Illustrator 16.0.0, SVG Export Plug-In . SVG Version: 6.00 Build 0)  -->
<!DOCTYPE svg PUBLIC "-//W3C//DTD SVG 1.1//EN" "http://www.w3.org/Graphics/SVG/1.1/DTD/svg11.dtd">
<svg version="1.1" xmlns="http://www.w3.org/2000/svg" xmlns:xlink="http://www.w3.org/1999/xlink" x="0px" y="0px" width="450px"
	 height="160px" viewBox="0 0 450 160" enable-background="new 0 0 450 160" xml:space="preserve">
<g id="Calque_1">
	<path fill="#FFCC99" stroke="#000000" stroke-width="5" stroke-miterlimit="10" d="M428.603,84.051
		c0,37.112-30.085,67.197-67.197,67.197c-37.111,0-67.196-30.085-67.196-67.197c0-35.847,30.084-67.196,67.196-67.196
		S428.603,46.939,428.603,84.051z"/>
	<g>
		<path fill="#FFFFCC" d="M361.583,150.964c-3.433,0-6.954-0.3-10.767-0.918c-15.105-2.444-28.094-10.838-28.57-12.577
			c-0.072-0.267,0.002-0.523,0.199-0.688c0.438-0.364,0.517-0.793,0.63-1.583c0.052-0.36,0.108-0.76,0.228-1.194
			c-0.104,0.038-0.236,0.092-0.402,0.17c-0.986,0.886-2.153,1.243-2.203,1.258c-0.048,0.015-0.096,0.021-0.145,0.021
			c-0.189,0-0.367-0.108-0.452-0.287c-0.105-0.224-0.03-0.491,0.175-0.629c0.047-0.03,1.106-0.735,2.057-1.2
			c0.125-0.12,0.244-0.251,0.354-0.394c0.045-0.057,0.084-0.109,0.119-0.158c-1.38,0.641-2.222,0.965-2.508,0.965
			c-0.211,0-0.445-0.15-0.518-0.348c-0.134-0.371,0.178-0.632,0.296-0.729c0.317-0.265,0.858-0.896,1.43-1.605l-1.612,1.135
			c-0.087,0.061-0.188,0.091-0.287,0.091c-0.141,0-0.279-0.059-0.378-0.172c-0.168-0.193-0.163-0.483,0.013-0.67
			c0.445-0.475,1.421-1.577,2.096-2.527c-0.44,0.351-0.948,0.78-1.396,1.186c-0.095,0.086-0.216,0.129-0.335,0.129
			c-0.125,0-0.25-0.046-0.346-0.139c-0.189-0.181-0.207-0.478-0.041-0.68c0.074-0.089,1.139-1.377,2.188-2.604
			c-0.497,0.311-1.026,0.646-1.531,0.972c-0.083,0.054-0.177,0.08-0.271,0.08c-0.145,0-0.287-0.063-0.386-0.182
			c-0.161-0.194-0.151-0.479,0.022-0.663c0.002-0.001,0.838-0.88,1.821-1.946c-0.38,0.309-0.765,0.626-1.139,0.937
			c-0.093,0.078-0.206,0.116-0.319,0.116c-0.127,0-0.254-0.048-0.351-0.143c-0.183-0.18-0.2-0.47-0.04-0.67l2.982-3.728
			c-0.727,0.594-1.516,1.253-2.269,1.893c-0.094,0.08-0.209,0.119-0.323,0.119c-0.129,0-0.257-0.049-0.354-0.146
			c-0.185-0.184-0.197-0.479-0.028-0.677c0,0,1.841-2.17,3.36-3.964c-0.417,0.291-0.85,0.599-1.264,0.899
			c-0.088,0.063-0.191,0.095-0.293,0.095c-0.139,0-0.277-0.059-0.376-0.17c-0.17-0.194-0.165-0.485,0.013-0.674
			c0.012-0.012,1.152-1.222,2.105-2.349c0.177-0.211,0.328-0.396,0.458-0.558c-0.582,0.313-1.3,0.739-1.931,1.143
			c-0.083,0.054-0.177,0.079-0.27,0.079c-0.15,0-0.299-0.068-0.397-0.196c-0.157-0.207-0.131-0.5,0.062-0.675
			c0.014-0.012,0.547-0.495,1.301-1.209c-0.216,0.181-0.431,0.36-0.643,0.539c-0.094,0.079-0.208,0.118-0.322,0.118
			c-0.13,0-0.26-0.051-0.357-0.15c-0.184-0.188-0.191-0.484-0.018-0.681c0.021-0.022,1.801-2.049,3.38-4.404
			c-0.624,0.567-1.361,1.27-2.02,1.928c-0.098,0.098-0.226,0.146-0.354,0.146c-0.122,0-0.243-0.044-0.34-0.133
			c-0.197-0.183-0.215-0.488-0.04-0.692c0.02-0.022,1.26-1.471,2.363-2.848c-0.539,0.423-1.124,0.896-1.664,1.345
			c-0.092,0.078-0.206,0.116-0.319,0.116c-0.131,0-0.262-0.052-0.359-0.152c-0.182-0.188-0.188-0.484-0.015-0.68
			c0-0.001,2.525-2.84,3.472-3.943c0.692-0.809,1.393-1.989,2.04-3.205c-0.275,0.281-0.558,0.579-0.817,0.863
			c-0.098,0.107-0.233,0.163-0.369,0.163c-0.096,0-0.192-0.027-0.276-0.084c-0.205-0.136-0.281-0.401-0.178-0.626
			c0.01-0.019,0.871-1.899,1.621-4.504c-0.348,0.376-0.55,0.564-0.833,0.564c-0.154,0-0.33-0.085-0.425-0.206
			c-0.186-0.237-0.11-0.536-0.078-0.664c0.117-0.472,0.297-0.959,0.485-1.476c0.223-0.607,0.464-1.268,0.661-2.035
			c-0.284,0.44-0.474,0.632-0.768,0.632c-0.19,0-0.552-0.133-0.552-0.636c0-0.617,0.308-1.382,0.633-2.19
			c0.155-0.386,0.313-0.78,0.443-1.166c-0.462,0.415-1.098,1.053-1.628,1.639c-0.098,0.108-0.234,0.164-0.371,0.164
			c-0.113,0-0.229-0.039-0.322-0.118c-0.205-0.174-0.236-0.479-0.07-0.69c0.729-0.929,2.395-3.113,3.302-4.527
			c-0.157,0.113-0.306,0.224-0.427,0.313c-0.773,0.571-0.986,0.721-1.237,0.721c-0.181,0-0.366-0.105-0.456-0.263
			c-0.104-0.185-0.088-0.392,0.047-0.617c0.171-0.285,0.543-0.646,1.014-1.059c-0.083,0.053-0.176,0.078-0.269,0.078
			c-0.144,0-0.286-0.062-0.384-0.18c-0.171-0.204-0.152-0.506,0.043-0.687c0.021-0.021,2.213-2.056,2.832-2.675
			c0.287-0.288,0.751-0.561,1.287-0.875c0.431-0.254,0.926-0.545,1.295-0.838c-0.344,0.116-0.752,0.248-1.172,0.342
			c-0.44,0.098-0.838,0.247-1.157,0.367c-0.345,0.129-0.573,0.215-0.782,0.215c-0.229,0-0.421-0.105-0.527-0.289
			c-0.188-0.322-0.02-0.671,0.186-1.029c0.652-1.143,0.553-1.228,0.127-1.57c0,0.001,0,0.001-0.003,0.001
			c-0.015,0-0.087-0.016-0.233-0.016c-1.258,0-4.472,1.092-5.604,1.513c-0.059,0.021-0.117,0.031-0.175,0.031
			c-0.192,0-0.376-0.113-0.458-0.299c-0.106-0.242-0.006-0.525,0.229-0.646l5.531-2.845c-0.001,0,0.714-0.441,1.571-1.11
			c-0.004-0.005-0.008-0.01-0.012-0.016c-0.094-0.13-0.117-0.332-0.066-0.484c0.11-0.332,0.603-1.297,1.151-2.263
			c-0.649,0.511-1.397,1.117-2.096,1.699c-0.093,0.078-0.207,0.116-0.32,0.116c-0.132,0-0.265-0.052-0.362-0.155
			c-0.182-0.191-0.184-0.49-0.006-0.683c0,0,3.637-3.952,5.06-5.481c0.874-0.938,0.898-1.212,0.898-1.241l0,0
			c-0.014,0-0.129-0.077-0.178-0.109c-0.272,0.037-0.931,0.203-1.411,0.324c-0.492,0.124-0.758,0.188-0.935,0.188
			c-0.229,0-0.483-0.173-0.54-0.396c-0.111-0.444,0.279-0.654,0.872-0.973c0.862-0.464,1.866-0.903,2.751-1.291
			c0.699-0.306,1.517-0.664,2.018-0.943c-0.084-0.002-0.182-0.004-0.293-0.004c-0.205,0-1.147,0.018-1.395,0.018
			c-1.053,0-2.908,0.975-3.535,1.351c-0.08,0.048-0.17,0.071-0.257,0.071c-0.167,0-0.331-0.084-0.426-0.237
			c-0.144-0.232-0.073-0.538,0.157-0.685c0.017-0.011,1.74-1.108,2.822-1.881c0.646-0.462,1.721-0.629,2.668-0.777
			c0.334-0.052,0.752-0.117,1.033-0.187c-0.527-0.179-1.873-0.291-2.504-0.344c-0.545-0.045-1.146-0.068-1.785-0.068
			c-1.087,0-1.916,0.068-1.925,0.068c-0.015,0.001-0.028,0.002-0.042,0.002c-0.246,0-0.458-0.18-0.494-0.428
			c-0.038-0.261,0.133-0.507,0.392-0.562c0.03-0.006,2.979-0.632,4.81-1.395c0.729-0.304,1.504-0.584,2.264-0.859
			c1.219-0.441,2.371-0.858,3.218-1.328c0.401-0.224,0.631-0.517,0.681-0.872c0.06-0.428-0.149-0.857-0.317-1.024
			c-0.022-0.023-0.105-0.05-0.263-0.05c-0.416,0-1.103,0.183-1.898,0.395c-0.311,0.083-0.644,0.172-1,0.26
			c-1.746,0.438-3.558,2.081-3.576,2.097c-0.096,0.087-0.217,0.131-0.338,0.131c-0.126,0-0.252-0.048-0.35-0.143
			c-0.189-0.186-0.201-0.487-0.026-0.687l1.106-1.265c1.008-1.151,2.824-2.149,5.123-3.412l1.174-0.647
			c2.861-1.589,3.063-1.778,3.063-2.881c0-1.434,1.139-4.876,3.045-9.209c1.356-3.083,4.377-7.339,6.804-10.759
			c0.72-1.016,1.386-1.952,1.933-2.754c2.467-3.617,10.34-11.446,12.086-13.046c2.006-1.838,6.968-4.222,11.487-4.867
			c0.388-0.055,0.769-0.083,1.132-0.083c3.152,0,5.421,2.192,6.069,5.865c0.434,2.458-0.948,4.946-3.789,6.826
			c-1.595,1.056-3.261,4.062-3.892,5.281l1.01,0.303c0.086,0.025,0.162,0.074,0.223,0.138c0.25,0.267,0.73,0.637,0.984,0.637
			c0.085-0.181-0.208-1.161-0.612-1.969c-0.116-0.233-0.034-0.516,0.188-0.651c0.08-0.049,0.17-0.073,0.258-0.073
			c0.156,0,0.309,0.072,0.406,0.207c1.044,1.44,2.428,3.075,2.822,3.212c0.08,0.024,0.135,0.029,0.168,0.029
			c0.094-0.113,0.226-0.168,0.361-0.168c0.11,0,0.223,0.036,0.318,0.108c0.214,0.16,0.261,0.479,0.112,0.701
			c-0.007,0.014-0.036,0.078-0.079,0.204c-0.05,0.151,0.205,0.478,0.508,0.739c1.404-0.851,7.465-4.525,8.771-5.418
			c0.979-0.669,5.329-2.595,9.537-4.456c2.332-1.032,4.535-2.007,5.619-2.535c3.294-1.603,7.352-3.834,8.162-4.645
			c0.516-0.515,1.219-1.107,1.963-1.735c0.655-0.552,1.333-1.123,1.921-1.674c0.964-0.902,2.623-1.092,3.847-1.092
			c0.702,0,1.445,0.064,2.04,0.176c1.55,0.291,2.414,2.109,2.22,3.56c-0.227,1.702-3.521,5.862-3.896,6.331
			c-1.199,1.498-2.496,2.824-3.748,4.107c-0.422,0.432-0.844,0.863-1.26,1.299c-0.757,0.793-1.721,2.13-2.742,3.546
			c-1.168,1.621-2.492,3.458-3.809,4.9c-2.635,2.89-5.986,6.46-7.296,7.693c-0.417,0.392-0.753,0.811-1.017,1.194
			c0.414-0.327,0.771-0.736,0.909-0.916c0.099-0.127,0.246-0.195,0.397-0.195c0.09,0,0.182,0.025,0.265,0.076
			c0.086,0.054,0.149,0.13,0.189,0.216c0.45-0.818,1.923-2.171,2.509-2.171c0.193,0,0.41,0.132,0.492,0.308
			c0.162,0.347-0.078,0.68-0.385,1.048c-0.477,0.571-0.875,1.361-1.176,2.077c0.99-0.961,1.771-2.314,1.779-2.329
			c0.091-0.158,0.258-0.252,0.435-0.252c0.036,0,0.072,0.004,0.108,0.012c0.214,0.047,0.371,0.228,0.391,0.446
			c0.008,0.104,0.08,1.025-0.006,1.546c-0.053,0.317-0.342,0.826-0.939,1.833c-0.307,0.515-0.653,1.098-0.745,1.343
			c-0.151,0.403-0.092,0.966-0.056,1.149c0.007,0.039,0.01,0.081,0.008,0.121l-0.001,0.026c0.059-0.095,0.115-0.191,0.169-0.289
			c0.518-0.948,2.886-2.305,3.355-2.568c0.076-0.043,0.16-0.063,0.243-0.063c0.149,0,0.296,0.067,0.394,0.191
			c0.152,0.193,0.141,0.469-0.026,0.649c-0.001,0-1.024,1.103-1.733,1.891c-0.276,0.307-0.297,0.644-0.313,1.261
			c-0.013,0.469-0.026,1.001-0.21,1.627c-0.152,0.518-0.449,0.969-0.775,1.34c0.279-0.046,0.563-0.097,0.822-0.153
			c0.221-0.047,0.484-0.07,0.809-0.07c1.279,0,3.04,0.371,3.115,0.386c0.246,0.053,0.415,0.28,0.394,0.532s-0.227,0.447-0.479,0.457
			c-0.007,0-0.218,0.009-0.55,0.033c-0.021,0.168-0.125,0.321-0.288,0.396c-1.095,0.503-3.005,1.495-3.472,2.014
			c-0.237,0.263-0.164,0.547-0.098,0.693c0.117,0.264,0.361,0.448,0.596,0.448c0.132,0,0.32-0.404,0.382-0.537
			c0.104-0.224,0.247-0.53,0.606-0.53c0.504,0,0.569,0.525,0.613,0.873c0.113,0.912-0.164,1.445-0.348,1.798
			c-0.085,0.164-0.137,0.267-0.128,0.327c0.019,0.135,0.06,0.295,0.104,0.472c0.139,0.559,0.329,1.325,0.117,2.033
			c-0.026,0.085-0.039,0.15-0.045,0.196c0.039-0.004,0.083-0.014,0.139-0.029c0.281-0.081,1.236-0.754,1.959-1.333
			c0.092-0.073,0.202-0.109,0.313-0.109c0.124,0,0.248,0.046,0.344,0.137c0.059,0.056,0.102,0.123,0.127,0.194l0.629-0.53
			c0.094-0.079,0.209-0.118,0.322-0.118c0.125,0,0.25,0.046,0.346,0.139c0.185,0.176,0.207,0.463,0.051,0.666
			c-0.309,0.402-0.633,0.849-0.914,1.258c0.91-0.735,1.983-1.709,2.467-2.165c0.096-0.09,0.22-0.136,0.343-0.136
			c0.12,0,0.24,0.043,0.335,0.129c0.193,0.175,0.221,0.469,0.062,0.675l-1.581,2.055l-1.475,1.402
			c-0.369,0.348-0.667,0.642-0.905,0.885c0.46-0.05,1.014-0.108,1.62-0.166c1.576-0.15,2.724-0.526,2.734-0.53
			c0.053-0.017,0.105-0.025,0.158-0.025c0.192,0,0.374,0.112,0.457,0.296c0.019,0.043,0.031,0.087,0.037,0.132
			c0.602-0.326,1.141-0.639,1.461-0.831c0.08-0.048,0.169-0.071,0.257-0.071c0.152,0,0.302,0.069,0.399,0.199
			c0.154,0.204,0.129,0.492-0.058,0.667c-0.099,0.092-2.446,2.274-4.156,3.088c-1.364,0.649-2.582,1.592-2.897,1.844l-0.246,0.491
			c-0.022,0.046-0.054,0.09-0.09,0.127c-0.008,0.008-0.076,0.079-0.163,0.189c-0.146,0.187-0.298,0.303-0.327,0.324
			c-0.029,0.021-0.061,0.04-0.094,0.054c-0.085,0.039-0.195,0.102-0.227,0.13c-0.005,0.005-0.207,0.215-0.303,0.291
			c-0.09,0.072-0.145,0.121-0.176,0.151c-0.037,0.089-0.1,0.167-0.184,0.224l-0.604,0.405c-0.008,0.005-0.85,0.581-1.333,1.546
			c-0.423,0.844-0.367,1.142-0.298,1.519l0.027,0.152c0.035,0.208,0.428,0.829,0.773,1.278l2.946,4.536
			c0.02,0.027,2.995,4.257,3.694,5.187c0.51,0.681,1.477,1.604,2.184,2.277c0.242,0.23,0.455,0.435,0.614,0.594
			c0.808,0.808,1.592,2.242,2.1,3.837c0.649,2.04-0.28,3.36-0.728,3.996c-0.336,0.477-0.428,1.396-0.435,1.713l0,0
			c0.007,0,0.315,2.093,0.472,3.801c0.141,1.542-0.016,2.427-0.215,3.548l-0.105,0.609c-0.283,1.7-1.097,2.952-2.719,4.188
			c-1.199,0.915-2.241,1.076-2.785,1.086c-0.051,0.262-0.146,0.587-0.324,0.897c-0.396,0.693-1.913,1.896-2.836,2.534
			c-1.196,0.827-3.387,1.355-4.842,1.432c-1.49,0.079-5.826,0.154-6.021,0.158c0,0.003-2.498,0.314-3.362,0.394
			c-0.306,0.027-0.611,0.046-0.886,0.046c-0.334,0-1.054,0-1.354-0.421c-0.098-0.017-0.289-0.037-0.629-0.037
			c-0.818,0-1.662,0.114-1.832,0.191c-0.225,0.136-0.447,0.208-0.652,0.208c-0.255,0-0.468-0.112-0.596-0.295
			c-0.051,0.039-0.11,0.097-0.169,0.179c-0.39,0.545-0.702,1.013-0.703,1.015c-0.095,0.143-0.253,0.223-0.416,0.223
			c-0.054,0-0.108-0.009-0.162-0.027c-0.048-0.016-0.091-0.039-0.131-0.067c0.026,0.117,0.062,0.233,0.093,0.34
			c0.1,0.342,0.194,0.664-0.014,0.942c-0.117,0.155-0.295,0.241-0.503,0.241c-0.233,0-0.511-0.104-1.023-0.385
			c-0.038-0.021-0.073-0.038-0.106-0.055c0.176,0.305,0.504,0.704,0.897,0.914c1.157,0.617,2.354,1.256,2.63,3.379
			c0.224,1.713,0.52,2.481,0.522,2.489c0.095,0.241-0.011,0.515-0.243,0.631c-0.027,0.014-0.057,0.024-0.086,0.033
			c0.309,0.836,0.571,1.561,0.571,1.561c0.09,0.246-0.026,0.52-0.265,0.627c-0.057,0.025-0.114,0.039-0.172,0.043
			c0.322,0.336,0.556,0.569,0.557,0.57c0.188,0.187,0.196,0.486,0.021,0.685c-0.098,0.111-0.236,0.169-0.375,0.169
			c-0.088,0-0.176-0.023-0.254-0.07c0.127,0.184,0.236,0.288,0.287,0.331l0,0c0.2,0.173,0.26,0.493,0.1,0.704
			c-0.051,0.067-0.113,0.12-0.182,0.156c0.061,0.058,0.112,0.108,0.155,0.148c0.188,0.179,0.21,0.472,0.049,0.675
			c-0.03,0.039-0.065,0.071-0.104,0.098c0.116,0.065,0.226,0.122,0.321,0.168c0.242,0.115,0.351,0.4,0.245,0.647
			c-0.06,0.139-0.174,0.237-0.308,0.28c0.099,0.077,0.168,0.192,0.186,0.326c0.035,0.261-0.139,0.503-0.396,0.556
			c-0.021,0.004-0.055,0.008-0.084,0.01c-0.104,0.01-0.199,0.026-0.276,0.046c0.188,0.179,0.485,0.395,0.839,0.612
			c0.181,0.075,0.341,0.153,0.471,0.231c0.206,0.124,0.519,0.312,0.414,0.688c-0.06,0.217-0.259,0.368-0.483,0.368
			c-0.001,0-0.003,0-0.005,0c-0.1,0-0.212-0.006-0.848-0.393c-0.184-0.072-0.381-0.14-0.576-0.197
			c0.324,0.213,0.685,0.438,1.021,0.639c0.229,0.136,0.312,0.43,0.186,0.665c-0.09,0.168-0.262,0.265-0.441,0.265
			c-0.072,0-0.146-0.016-0.215-0.049c-0.143-0.068-0.336-0.151-0.543-0.228c0.422,0.252,1.053,0.595,1.996,1.055
			c0.246,0.121,0.553,0.271,0.463,0.661c-0.053,0.227-0.254,0.387-0.487,0.387c-0.063,0-0.155-0.021-0.214-0.046l-0.039-0.016
			c0.25,0.21,0.34,0.274,0.366,0.292c0.164,0.087,0.279,0.258,0.279,0.445c0,0.276-0.226,0.501-0.502,0.501
			c-0.05,0-0.104-0.01-0.155-0.025c-0.029-0.007-0.059-0.015-0.088-0.022c0.035,0.092,0.045,0.194,0.02,0.296
			c-0.055,0.229-0.259,0.384-0.485,0.384c-0.033,0-0.067-0.003-0.101-0.01c-0.016-0.004-1.391-0.282-2.369-0.352
			c0.328,0.179,0.726,0.328,1.017,0.404c0.233,0.061,0.39,0.279,0.372,0.52c-0.002,0.019-0.004,0.036-0.008,0.054
			c0.369-0.124,0.629-0.278,0.634-0.281c0.08-0.048,0.169-0.07,0.257-0.07c0.15,0,0.297,0.066,0.395,0.192
			c0.156,0.199,0.139,0.482-0.041,0.661c-0.004,0.005-0.01,0.012-0.016,0.019c0.035,0.016,0.084,0.034,0.152,0.054
			c0.053,0.015,0.117,0.021,0.193,0.021c0.551,0,1.363-0.371,1.629-0.514c0.076-0.04,0.156-0.06,0.236-0.06
			c0.177,0,0.348,0.094,0.438,0.259c0.132,0.24,0.046,0.542-0.192,0.677c-0.14,0.078-0.996,0.553-1.93,0.875
			c-0.006,0.128-0.06,0.251-0.157,0.343l-1.827,1.716c-0.029,0.028-0.063,0.053-0.1,0.073c-0.09,0.05-9.053,4.968-19.771,7.096
			C369.773,150.537,365.648,150.964,361.583,150.964z M392.963,124.305c0.121,0.149,0.283,0.343,0.504,0.589
			c0.066,0.074,0.133,0.149,0.201,0.224c-0.218-0.387-0.387-0.672-0.516-0.882C393.098,124.264,393.035,124.288,392.963,124.305z"/>
		<path d="M424.807,8.751c0.766,0,1.474,0.078,1.947,0.167c1.266,0.237,1.976,1.817,1.817,3.002
			c-0.158,1.186-2.212,4.109-3.792,6.085c-1.582,1.975-3.319,3.634-4.979,5.373c-1.66,1.739-4.109,5.769-6.559,8.455
			c-2.45,2.687-5.926,6.401-7.27,7.666c-1.344,1.264-1.896,2.766-1.896,2.766s0,0,0.869-0.396c0.869-0.395,1.659-1.422,1.659-1.422
			s-0.79,1.581-1.58,2.45c-0.235,0.258-0.239,0.349-0.13,0.349c0.26,0,1.157-0.507,1.157-0.507s0.87-1.107,1.422-2.213
			c0.405-0.81,1.826-1.958,2.095-1.958c0.098,0,0.041,0.154-0.277,0.536c-1.186,1.422-1.896,4.03-1.896,4.03s0,0,1.185-1.027
			c1.186-1.027,2.134-2.687,2.134-2.687s0.079,0.948,0,1.422s-1.423,2.449-1.659,3.082c-0.237,0.632-0.079,1.422-0.079,1.422
			l-0.079,1.659c0,0,0.711-0.79,1.185-1.659c0.475-0.869,3.161-2.371,3.161-2.371s-1.027,1.106-1.738,1.896
			c-0.711,0.791-0.236,1.738-0.633,3.082c-0.395,1.344-1.975,2.213-1.975,2.213s1.502-0.158,2.607-0.396
			c0.195-0.042,0.437-0.059,0.702-0.059c1.243,0,3.012,0.375,3.012,0.375s-2.055,0.079-3.556,0.474
			c-1.502,0.395-0.711,0.711-0.711,0.711l3.239-0.711c0,0-2.923,1.343-3.635,2.133c-0.711,0.791,0,1.976,0.87,1.976
			c0.65,0,0.858-1.067,0.988-1.067c0.043,0,0.077,0.119,0.117,0.435c0.158,1.264-0.553,1.581-0.475,2.133
			c0.078,0.553,0.475,1.501,0.237,2.292c-0.185,0.613,0.013,0.846,0.368,0.846c0.102,0,0.219-0.02,0.343-0.055
			c0.553-0.158,2.134-1.422,2.134-1.422l-1.58,2.212l3.002-2.528c0,0-2.23,2.906-1.69,2.906c0.044,0,0.106-0.02,0.189-0.061
			c1.106-0.553,3.793-3.082,3.793-3.082l-1.581,2.055c0,0,0,0-1.422,1.343c-1.422,1.343-1.817,1.896-1.817,1.896
			s1.265-0.158,2.923-0.316c1.66-0.158,2.846-0.553,2.846-0.553s-2.94,1.68-2.298,1.68c0.04,0,0.095-0.006,0.164-0.021
			c1.186-0.237,4.347-2.133,4.347-2.133s-2.371,2.212-4.03,3.002s-3.082,1.976-3.082,1.976l-0.294,0.588
			c0,0-0.086,0.087-0.199,0.231c-0.111,0.144-0.23,0.231-0.23,0.231s-0.283,0.126-0.391,0.247c0,0-0.166,0.175-0.246,0.239
			c-0.393,0.314-0.326,0.351-0.326,0.351l-0.604,0.405c0,0-0.948,0.632-1.502,1.738c-0.554,1.106-0.395,1.501-0.316,1.976
			c0.079,0.474,0.87,1.501,0.87,1.501l2.924,4.504c0,0,3.002,4.268,3.713,5.215c0.712,0.949,2.213,2.292,2.845,2.924
			c0.632,0.633,1.423,1.896,1.977,3.635s-0.159,2.845-0.659,3.557c-0.502,0.711-0.526,1.992-0.526,1.992s0.315,2.116,0.474,3.855
			c0.158,1.738-0.078,2.607-0.315,4.029c-0.237,1.423-0.87,2.608-2.528,3.872c-1.106,0.843-2.037,0.983-2.535,0.983
			c-0.249,0-0.39-0.035-0.39-0.035s0,0.633-0.315,1.185c-0.316,0.554-1.66,1.66-2.688,2.371s-3.082,1.265-4.582,1.344
			c-1.502,0.079-6.006,0.157-6.006,0.157s-2.529,0.316-3.398,0.396c-0.289,0.026-0.579,0.044-0.84,0.044
			c-0.521,0-0.924-0.07-0.977-0.281c-0.032-0.127-0.469-0.177-1.006-0.177c-0.807,0-1.84,0.113-2.076,0.256
			c-0.166,0.1-0.304,0.144-0.408,0.144c-0.145,0-0.225-0.085-0.225-0.223c0-0.094-0.086-0.15-0.215-0.15
			c-0.197,0-0.494,0.132-0.732,0.467c-0.395,0.553-0.712,1.027-0.712,1.027l0.079-1.106c0,0-0.055-0.023-0.141-0.023
			c-0.186,0-0.512,0.11-0.729,0.813c-0.24,0.782,0.479,1.745,0.073,1.745c-0.128,0-0.367-0.096-0.784-0.323
			c-0.316-0.173-0.547-0.246-0.705-0.246c-0.706,0,0.053,1.468,1.021,1.985c1.185,0.632,2.133,1.185,2.37,3.002
			c0.237,1.818,0.553,2.608,0.553,2.608s-1.025-1.675-1.158-1.675c-0.027,0-0.017,0.074,0.052,0.252
			c0.396,1.027,1.344,3.635,1.344,3.635s-0.125-0.23-0.301-0.542c-0.368-0.656-0.963-1.674-1.103-1.674
			c-0.03,0-0.04,0.05-0.019,0.162c0.061,0.334-0.078,0.411-0.261,0.411c-0.158,0-0.351-0.058-0.479-0.058
			c-0.11,0-0.174,0.042-0.129,0.199c0.063,0.22,0.475,0.727,0.949,1.258c0.718,0.805,1.578,1.666,1.578,1.666
			s-0.696-0.543-1.006-0.543c-0.133,0-0.194,0.1-0.1,0.385c0.254,0.763,0.662,1.168,0.812,1.297
			c-0.274-0.221-1.446-1.152-1.687-1.152c-0.055,0-0.061,0.05,0.006,0.171c0.396,0.712,1.738,1.977,1.738,1.977
			s-0.504-0.336-0.938-0.554c-0.208-0.104-0.399-0.181-0.513-0.181c-0.108,0-0.145,0.071-0.051,0.26
			c0.396,0.79,1.896,1.502,1.896,1.502s-0.629-0.24-0.982-0.24c-0.221,0-0.336,0.094-0.123,0.397
			c0.459,0.658,0.811,0.713,0.916,0.713c0.001,0,0.002,0,0.004,0c-0.184,0.017-1.194,0.135-0.762,0.71
			c0.215,0.287,0.723,0.639,1.141,0.894c-0.654-0.267-1.58-0.487-2.045-0.487c-0.207,0-0.322,0.044-0.281,0.147
			c0.158,0.395,2.291,1.659,2.291,1.659s-1.045-0.501-1.654-0.501c-0.193,0-0.342,0.051-0.4,0.185
			c-0.226,0.529,3.309,2.143,3.269,2.143c-0.001,0-0.011-0.003-0.028-0.01c-0.254-0.102-1.398-0.599-1.795-0.599
			c-0.219,0-0.211,0.15,0.293,0.599c1.104,0.98,1.352,1.153,1.406,1.182c-0.242-0.063-3.148-0.805-3.886-0.805
			c-0.192,0-0.237,0.051-0.048,0.178c0.947,0.632,3.238,1.264,3.238,1.264s-1.842-0.376-2.855-0.376
			c-0.455,0-0.742,0.076-0.619,0.296c0.394,0.712,1.896,1.106,1.896,1.106s-2.134,0.237-1.028,0.633
			c0.222,0.079,0.45,0.11,0.676,0.11c0.9,0,1.735-0.506,1.735-0.506s-0.637,0.634,0.355,0.908c0.101,0.028,0.211,0.04,0.327,0.04
			c0.797,0,1.865-0.573,1.865-0.573s-1.98,1.115-3.16,1.115c-0.105,0-0.205-0.009-0.297-0.028c-0.165-0.035-0.277-0.051-0.35-0.051
			c-0.406,0,0.508,0.485,0.508,0.485l1.115-0.232l-1.826,1.716c0,0-8.86,4.905-19.625,7.043c-4.371,0.868-8.424,1.296-12.517,1.296
			c-3.462,0-6.952-0.307-10.687-0.911c-15.583-2.522-29.079-11.598-28.131-12.389c0.948-0.79,0.633-1.896,1.106-3.317
			c0.104-0.313,0.003-0.435-0.22-0.435c-0.24,0-0.621,0.143-1.033,0.341c0.163-0.152,0.32-0.319,0.463-0.505
			c0.948-1.229,0.316-1.298,0.316-1.298s-2.705,1.299-3.102,1.299c-0.082,0-0.064-0.057,0.099-0.193
			c0.948-0.79,3.477-4.267,3.477-4.267l-1.797,1.265l-2.47,1.738c0,0,2.37-2.528,2.844-3.794c0.083-0.22,0.051-0.311-0.059-0.311
			c-0.521,0-2.785,2.05-2.785,2.05s3.002-3.635,3.951-4.583c0.123-0.124,0.147-0.178,0.096-0.178c-0.344,0-4.047,2.39-4.047,2.39
			s1.196-1.257,2.412-2.592c0.76-0.834,1.525-1.699,2.013-2.307c0.181-0.226,0.22-0.322,0.153-0.322
			c-0.398,0-4.578,3.482-4.578,3.482s3.793-4.741,5.057-6.321c0.162-0.202,0.2-0.291,0.143-0.291c-0.395,0-5.199,4.084-5.199,4.084
			s4.425-5.215,5.215-6.163c0.099-0.118,0.113-0.171,0.064-0.171c-0.35,0-3.857,2.541-3.857,2.541s1.15-1.219,2.123-2.37
			c0.514-0.609,0.978-1.199,1.195-1.581c0.113-0.198,0.08-0.279-0.053-0.279c-0.605,0-3.266,1.702-3.266,1.702
			s3.318-3.003,5.215-5.216c0.295-0.344,0.373-0.489,0.293-0.489c-0.437,0-5.508,4.282-5.508,4.282s2.371-2.687,4.109-5.531
			c0.373-0.609,0.426-0.849,0.279-0.849c-0.537,0-3.757,3.219-3.757,3.219s2.845-3.317,3.793-4.74
			c0.145-0.217,0.157-0.309,0.073-0.309c-0.461,0-3.866,2.837-3.866,2.837s2.528-2.845,3.478-3.95
			c0.947-1.106,1.896-2.846,2.844-4.741c0.197-0.393,0.211-0.548,0.108-0.548c-0.392,0-2.479,2.285-2.479,2.285
			s0.948-2.054,1.738-4.898c0.212-0.764,0.186-1.026,0.038-1.026c-0.323,0-1.229,1.275-1.442,1.275
			c-0.051,0-0.063-0.071-0.019-0.249c0.316-1.265,1.107-2.687,1.423-4.899c0.065-0.452,0.037-0.628-0.048-0.628
			c-0.291,0-1.246,2.027-1.48,2.027c-0.033,0-0.052-0.041-0.052-0.136c0-0.947,0.948-2.528,1.265-3.95
			c0.055-0.251,0.008-0.354-0.108-0.354c-0.542,0-2.579,2.251-2.579,2.251s3.478-4.426,3.951-5.689
			c0.077-0.206,0.045-0.291-0.061-0.291c-0.472,0-2.411,1.678-2.646,1.678c-0.035,0-0.032-0.037,0.02-0.123
			c0.474-0.79,3.478-2.844,3.478-3.476c0-0.074-0.045-0.107-0.121-0.107c-0.58,0-3.041,1.846-3.041,1.846s2.213-2.055,2.846-2.688
			c0.632-0.632,2.686-1.422,3.16-2.37c0.167-0.333,0.119-0.452-0.075-0.452c-0.358,0-1.214,0.404-2.138,0.609
			c-0.877,0.195-1.572,0.57-1.83,0.57c-0.16,0-0.15-0.146,0.092-0.57c0.633-1.106,0.791-1.58,0-2.212
			c-0.105-0.084-0.294-0.121-0.543-0.121c-1.623,0-5.778,1.543-5.778,1.543l5.531-2.845c0,0,2.845-1.738,4.109-3.635
			c0.239-0.359,0.298-0.503,0.235-0.503c-0.249,0-2.408,2.28-2.598,2.28c-0.014,0-0.018-0.012-0.008-0.039
			c0.157-0.474,1.422-2.845,2.212-3.951c0.097-0.136,0.11-0.195,0.06-0.195c-0.363,0-4.011,3.04-4.011,3.04s3.636-3.95,5.058-5.479
			s1.105-1.791,0.632-2.107c-0.05-0.033-0.134-0.047-0.241-0.047c-0.629,0-2.08,0.475-2.382,0.475c-0.144,0-0.026-0.108,0.569-0.428
			c2.055-1.106,4.898-2.055,5.373-2.687c0.316-0.421-0.281-0.492-1.135-0.492c-0.428,0-0.92,0.018-1.395,0.018
			c-1.422,0-3.793,1.422-3.793,1.422s1.738-1.106,2.846-1.896c1.105-0.791,4.108-0.632,4.108-1.265c0-0.632-1.265-0.79-3.161-0.948
			c-0.632-0.053-1.264-0.07-1.826-0.07c-1.123,0-1.967,0.07-1.967,0.07s3.003-0.632,4.899-1.423c1.896-0.79,4.109-1.422,5.532-2.212
			c1.422-0.791,0.947-2.213,0.474-2.687c-0.139-0.139-0.346-0.196-0.616-0.196c-0.652,0-1.678,0.335-3.02,0.67
			c-1.896,0.475-3.793,2.213-3.793,2.213s0,0,1.107-1.265c1.105-1.265,3.318-2.371,6.163-3.951c2.845-1.58,3.319-1.896,3.319-3.318
			s1.264-5.057,3.002-9.008c1.738-3.951,6.321-9.957,8.691-13.433c2.371-3.477,10.115-11.221,12.012-12.959
			c1.896-1.738,6.796-4.109,11.221-4.741c0.372-0.053,0.725-0.079,1.061-0.079c3.647,0,5.143,2.991,5.577,5.452
			c0.474,2.687-1.423,4.899-3.573,6.322c-2.149,1.422-4.329,6.005-4.329,6.005l1.581,0.474c0,0,0.739,0.796,1.35,0.796
			c0.109,0,0.213-0.025,0.309-0.085c0.633-0.395-0.474-2.608-0.474-2.608s2.292,3.161,3.082,3.397
			c0.122,0.037,0.226,0.051,0.313,0.051c0.272,0,0.377-0.139,0.377-0.139c0.001,0-0.053,0.073-0.138,0.326
			c-0.237,0.711,0.948,1.501,0.948,1.501s7.586-4.583,9.088-5.61c1.501-1.027,12.169-5.531,15.092-6.954
			c2.924-1.422,7.349-3.793,8.297-4.741s2.607-2.213,3.872-3.398C422.092,8.967,423.529,8.751,424.807,8.751 M394.378,128.031
			c0.037,0.03,0.058,0.047,0.058,0.047S394.414,128.063,394.378,128.031 M394.672,130.922h0.006 M394.672,130.922
			c0,0-0.01,0.002-0.027,0.002C394.662,130.923,394.672,130.922,394.672,130.922 M395.023,132.527
			c0.169,0.069,0.319,0.141,0.439,0.213c0.148,0.089,0.202,0.128,0.188,0.128C395.624,132.868,395.352,132.729,395.023,132.527
			 M322.619,133.753c-0.926,0.856-2.066,1.199-2.066,1.199S321.672,134.206,322.619,133.753 M396.078,136.845
			c0.012,0.003,0.017,0.004,0.017,0.004s0,0.001-0.002,0.001S396.087,136.849,396.078,136.845 M424.807,7.751L424.807,7.751
			c-1.313,0-3.105,0.213-4.188,1.227c-0.579,0.542-1.251,1.109-1.901,1.657c-0.753,0.634-1.464,1.233-1.994,1.764
			c-0.75,0.75-4.756,2.958-8.027,4.549c-1.076,0.523-3.275,1.497-5.604,2.527c-5.035,2.228-8.672,3.855-9.615,4.501
			c-1.212,0.829-6.572,4.084-8.416,5.201c-0.023-0.028-0.043-0.054-0.06-0.078c0,0,0.001-0.001,0.001-0.001
			c0.261-0.437,0.152-1.005-0.26-1.313c-0.18-0.134-0.391-0.199-0.6-0.199c-0.146,0-0.293,0.032-0.428,0.095
			c-0.482-0.362-1.658-1.783-2.535-2.992c-0.194-0.269-0.499-0.413-0.811-0.413c-0.093,0-0.188,0.013-0.279,0.04
			c0.734-1.137,1.6-2.262,2.396-2.789c3.015-1.995,4.475-4.667,4.006-7.33c-0.695-3.931-3.148-6.278-6.563-6.278
			c-0.387,0-0.791,0.03-1.203,0.089c-4.613,0.659-9.693,3.105-11.754,4.993c-1.754,1.609-9.672,9.483-12.162,13.133
			c-0.545,0.8-1.208,1.734-1.926,2.747c-2.44,3.438-5.477,7.717-6.854,10.847c-0.724,1.646-3.087,7.189-3.087,9.411
			c0,0.803,0,0.887-2.805,2.444c-0.404,0.224-0.795,0.439-1.172,0.646c-2.344,1.287-4.193,2.303-5.259,3.521l-1.106,1.265
			c-0.35,0.4-0.326,1.003,0.054,1.374c0.194,0.189,0.446,0.285,0.698,0.285c0.242,0,0.484-0.087,0.676-0.263
			c0.017-0.015,1.74-1.575,3.36-1.98c0.358-0.089,0.694-0.179,1.007-0.262c0.744-0.198,1.39-0.37,1.746-0.378
			c0.064,0.119,0.135,0.315,0.107,0.505c-0.01,0.071-0.039,0.288-0.428,0.504c-0.811,0.45-1.945,0.86-3.146,1.295
			c-0.758,0.274-1.542,0.558-2.285,0.868c-1.786,0.744-4.691,1.361-4.72,1.367c-0.518,0.109-0.859,0.601-0.783,1.123
			c0.072,0.495,0.496,0.855,0.988,0.855c0.027,0,0.055-0.001,0.084-0.003c0.008,0,0.819-0.067,1.883-0.067
			c0.416,0,0.815,0.01,1.192,0.03c-0.331,0.113-0.638,0.255-0.896,0.439c-1.072,0.765-2.783,1.855-2.801,1.866
			c-0.461,0.294-0.601,0.903-0.313,1.369c0.188,0.306,0.516,0.475,0.852,0.475c0.098,0,0.195-0.014,0.291-0.044
			c-0.567,0.314-1.125,0.695-0.938,1.437c0.097,0.385,0.451,0.773,1.024,0.773c0.237,0,0.511-0.066,1.058-0.204
			c0.141-0.036,0.314-0.08,0.491-0.122c-0.082,0.095-0.178,0.203-0.29,0.323c-1.423,1.529-5.061,5.482-5.061,5.482
			c-0.357,0.388-0.352,0.985,0.012,1.367c0.195,0.206,0.459,0.311,0.725,0.311c0.226,0,0.453-0.077,0.639-0.232
			c0.078-0.064,0.156-0.129,0.235-0.195c-0.037,0.087-0.065,0.161-0.085,0.218c-0.051,0.152-0.064,0.32-0.041,0.482
			c-0.508,0.383-0.961,0.686-1.24,0.858l-5.498,2.828c-0.47,0.242-0.67,0.809-0.457,1.292c0.164,0.373,0.529,0.597,0.915,0.597
			c0.116,0,0.233-0.021,0.349-0.063c1.542-0.573,4.38-1.481,5.43-1.481c0.011,0,0.021,0,0.032,0
			c0.016,0.016,0.028,0.028,0.037,0.039c-0.034,0.133-0.167,0.4-0.394,0.798c-0.186,0.325-0.531,0.929-0.185,1.527
			c0.195,0.338,0.554,0.539,0.96,0.539c0.039,0,0.077-0.002,0.115-0.006c-0.683,0.675-2.736,2.583-2.758,2.604
			c-0.391,0.361-0.428,0.965-0.088,1.373c0.012,0.013,0.021,0.025,0.033,0.037c-0.191,0.196-0.336,0.374-0.438,0.545
			c-0.308,0.514-0.165,0.923-0.053,1.122c0.177,0.312,0.526,0.514,0.885,0.516c-0.669,0.925-1.414,1.907-2.024,2.685
			c-0.334,0.424-0.271,1.035,0.141,1.383c0.188,0.157,0.416,0.235,0.645,0.235c0.251,0,0.5-0.094,0.692-0.278
			c-0.159,0.47-0.27,0.917-0.27,1.332c0,0.69,0.475,1.083,0.953,1.131c-0.089,0.256-0.178,0.5-0.265,0.736
			c-0.193,0.529-0.377,1.028-0.501,1.525c-0.041,0.165-0.165,0.664,0.169,1.094c0.187,0.238,0.5,0.393,0.803,0.398
			c-0.625,1.92-1.219,3.215-1.226,3.23c-0.206,0.448-0.056,0.979,0.355,1.252c0.097,0.064,0.201,0.109,0.309,0.137
			c-0.328,0.525-0.661,1-0.989,1.384c-0.932,1.086-3.439,3.908-3.465,3.937c-0.348,0.391-0.336,0.983,0.029,1.359
			c0.131,0.136,0.291,0.227,0.463,0.271c-0.301,0.357-0.497,0.586-0.504,0.594c-0.35,0.408-0.314,1.02,0.079,1.385
			c0.157,0.146,0.349,0.231,0.548,0.258c-0.721,0.906-1.238,1.496-1.25,1.508c-0.347,0.394-0.331,0.987,0.035,1.361
			c0.004,0.004,0.008,0.008,0.012,0.012c-0.355,0.353-0.398,0.917-0.092,1.319c0.196,0.256,0.494,0.393,0.795,0.393
			c0.018,0,0.035,0,0.051-0.001c-0.445,0.49-0.771,0.836-0.777,0.843c-0.355,0.375-0.365,0.958-0.025,1.346
			c0.12,0.137,0.27,0.233,0.432,0.288c-1.007,1.188-1.846,2.176-1.865,2.198c-0.336,0.397-0.313,0.986,0.057,1.354
			c0.18,0.181,0.412,0.278,0.65,0.291l-0.725,0.905c-0.32,0.401-0.285,0.979,0.08,1.339c0.053,0.051,0.109,0.096,0.168,0.133
			c-0.119,0.126-0.188,0.199-0.191,0.202c-0.35,0.367-0.369,0.937-0.047,1.327c0.162,0.195,0.385,0.314,0.619,0.351
			c-0.348,0.418-0.586,0.705-0.619,0.746c-0.334,0.404-0.299,0.997,0.08,1.359c0.104,0.1,0.225,0.173,0.354,0.219
			c-0.139,0.156-0.271,0.301-0.393,0.43c-0.35,0.374-0.361,0.952-0.025,1.34c0.139,0.159,0.317,0.265,0.509,0.313
			c-0.159,0.311-0.126,0.597-0.049,0.811c0.104,0.289,0.327,0.507,0.606,0.61c-0.349,0.287-0.464,0.779-0.268,1.196
			c0.168,0.358,0.525,0.574,0.904,0.574c0.096,0,0.192-0.014,0.288-0.042c0.109-0.033,0.901-0.283,1.751-0.862
			c-0.004,0.026-0.008,0.053-0.012,0.078c-0.107,0.75-0.17,1.033-0.455,1.27c-0.348,0.29-0.485,0.752-0.361,1.205
			c0.648,2.365,14.451,10.589,28.973,12.939c3.839,0.621,7.387,0.924,10.847,0.924c4.099,0,8.256-0.431,12.711-1.315
			c10.794-2.143,19.548-6.945,19.915-7.148c0.072-0.04,0.14-0.089,0.2-0.146l1.827-1.716c0.1-0.094,0.177-0.204,0.23-0.324
			c0.831-0.313,1.547-0.703,1.759-0.822c0.478-0.269,0.649-0.872,0.386-1.353c-0.182-0.331-0.523-0.519-0.877-0.519
			c-0.16,0-0.322,0.038-0.473,0.119c-0.268,0.143-0.717,0.33-1.08,0.412c-0.014-0.146-0.059-0.289-0.137-0.42
			c0.123-0.108,0.22-0.247,0.278-0.408c0.441-0.104,0.771-0.502,0.771-0.975c0-0.187-0.052-0.362-0.142-0.514
			c0.106-0.122,0.186-0.271,0.224-0.437c0.18-0.777-0.506-1.112-0.731-1.223c-0.22-0.107-0.422-0.207-0.607-0.302
			c0.012-0.018,0.022-0.037,0.033-0.056c0.086-0.162,0.123-0.337,0.117-0.509c0.301-0.107,0.54-0.355,0.629-0.676
			c0.205-0.744-0.432-1.126-0.641-1.251c-0.139-0.084-0.307-0.167-0.496-0.248c-0.022-0.014-0.045-0.028-0.066-0.041
			c0.162-0.178,0.261-0.413,0.261-0.672c0-0.096-0.013-0.188-0.038-0.276c0.045-0.062,0.082-0.128,0.113-0.2
			c0.187-0.438,0.037-0.938-0.338-1.205c0.052-0.236,0.017-0.485-0.102-0.699c0.152-0.284,0.158-0.618,0.023-0.899
			c0.031-0.026,0.061-0.056,0.088-0.087c0.35-0.396,0.331-0.995-0.042-1.369c-0.002-0.002-0.05-0.05-0.132-0.133
			c0.187-0.26,0.244-0.604,0.127-0.925c-0.017-0.047-0.201-0.555-0.438-1.197c0.252-0.275,0.336-0.679,0.189-1.044
			c0-0.001-0.277-0.734-0.49-2.366c-0.26-1.995-1.309-2.854-2.318-3.44c0.127-0.073,0.238-0.171,0.327-0.29
			c0.265-0.354,0.251-0.73,0.181-1.057c0.185-0.072,0.349-0.201,0.465-0.375c0.004-0.005,0.231-0.346,0.539-0.782
			c0.154,0.068,0.328,0.105,0.514,0.105c0.277,0,0.566-0.084,0.861-0.251c0.222-0.063,0.938-0.148,1.623-0.148
			c0.168,0,0.292,0.005,0.381,0.012c0.486,0.446,1.287,0.446,1.602,0.446c0.27,0,0.574-0.016,0.93-0.048
			c0.816-0.074,3-0.346,3.379-0.393c0.538-0.01,4.558-0.082,5.988-0.157c1.521-0.081,3.826-0.641,5.099-1.521
			c0.098-0.067,2.396-1.665,2.985-2.697c0.129-0.225,0.221-0.455,0.286-0.671c0.704-0.079,1.646-0.365,2.692-1.163
			c1.732-1.319,2.604-2.666,2.909-4.503c0.036-0.212,0.071-0.412,0.104-0.604c0.197-1.111,0.367-2.072,0.221-3.68
			c-0.143-1.563-0.404-3.39-0.467-3.82c0.02-0.414,0.133-1.065,0.34-1.359c0.455-0.647,1.52-2.161,0.796-4.438
			c-0.53-1.667-1.361-3.177-2.222-4.038c-0.162-0.161-0.379-0.368-0.624-0.602c-0.693-0.662-1.644-1.568-2.128-2.215
			c-0.695-0.926-3.666-5.148-3.696-5.191l-2.903-4.473c-0.014-0.022-0.029-0.044-0.045-0.065c-0.308-0.4-0.633-0.918-0.684-1.086
			l-0.021-0.13c-0.059-0.317-0.094-0.509,0.253-1.204c0.42-0.84,1.159-1.352,1.167-1.356l0.602-0.403
			c0.129-0.086,0.234-0.2,0.309-0.331c0.023-0.02,0.053-0.043,0.086-0.069c0.102-0.081,0.234-0.214,0.318-0.302
			c0.045-0.027,0.094-0.048,0.103-0.052c0.063-0.029,0.128-0.066,0.185-0.107c0.053-0.04,0.242-0.187,0.425-0.42
			c0.063-0.081,0.114-0.135,0.126-0.148c0.071-0.073,0.135-0.162,0.181-0.253l0.195-0.392c0.397-0.312,1.499-1.137,2.715-1.716
			c1.778-0.847,4.181-3.08,4.282-3.174c0.374-0.349,0.424-0.924,0.117-1.333c-0.195-0.259-0.495-0.398-0.8-0.398
			c-0.176,0-0.354,0.046-0.515,0.143c-0.303,0.182-0.654,0.386-1.023,0.592c-0.184-0.167-0.424-0.26-0.674-0.26
			c-0.105,0-0.211,0.017-0.316,0.051c-0.01,0.003-1.11,0.362-2.623,0.506c-0.065,0.006-0.13,0.013-0.193,0.019l1.291-1.219
			c0.038-0.036,0.073-0.076,0.105-0.117l1.58-2.055c0.318-0.413,0.266-1.001-0.121-1.351c-0.19-0.173-0.431-0.259-0.671-0.259
			c-0.247,0-0.493,0.091-0.686,0.272c-0.195,0.184-0.423,0.394-0.669,0.616c-0.051-0.138-0.134-0.266-0.246-0.373
			c-0.193-0.185-0.441-0.277-0.691-0.277c-0.229,0-0.457,0.078-0.644,0.235l-0.265,0.223c-0.157-0.094-0.336-0.142-0.514-0.142
			c-0.221,0-0.441,0.072-0.625,0.219c-0.385,0.308-0.803,0.617-1.145,0.851c-0.002-0.538-0.127-1.042-0.229-1.448
			c-0.029-0.12-0.059-0.232-0.078-0.332c0.018-0.037,0.039-0.075,0.061-0.116c0.199-0.384,0.533-1.025,0.4-2.091
			c-0.041-0.324-0.164-1.31-1.109-1.311l0,0c-0.004,0-0.006,0-0.01,0c0.653-0.377,1.478-0.8,2.203-1.133
			c0.182-0.083,0.326-0.214,0.427-0.372c0.138-0.008,0.218-0.011,0.222-0.012c0.505-0.02,0.916-0.412,0.958-0.914
			c0.043-0.502-0.295-0.958-0.788-1.063c-0.076-0.017-1.888-0.397-3.219-0.397c-0.209,0-0.396,0.009-0.568,0.027
			c0.076-0.16,0.141-0.328,0.192-0.503c0.202-0.689,0.218-1.281,0.23-1.756c0.015-0.57,0.032-0.769,0.186-0.939
			c0.706-0.784,1.727-1.883,1.728-1.885c0.335-0.361,0.357-0.911,0.053-1.298c-0.195-0.249-0.488-0.382-0.786-0.382
			c-0.166,0-0.334,0.041-0.487,0.127c-0.564,0.316-1.633,0.944-2.475,1.621c0.133-0.231,0.287-0.491,0.418-0.71
			c0.66-1.109,0.936-1.601,1.003-2.005c0.095-0.57,0.024-1.492,0.011-1.67c-0.037-0.437-0.353-0.798-0.779-0.893
			c-0.073-0.016-0.146-0.024-0.218-0.024c-0.039,0-0.077,0.002-0.116,0.006c-0.016-0.085-0.043-0.173-0.084-0.263
			c-0.165-0.352-0.558-0.596-0.945-0.596l0,0c-0.111,0-0.232,0.025-0.362,0.071c1.604-1.685,3.479-3.71,4.774-5.131
			c1.336-1.464,2.669-3.313,3.846-4.945c1.01-1.401,1.965-2.725,2.697-3.493c0.416-0.435,0.835-0.864,1.256-1.295
			c1.262-1.291,2.566-2.627,3.78-4.144c0.88-1.1,3.769-4.825,4.003-6.578c0.223-1.672-0.799-3.775-2.623-4.117
			C426.316,7.818,425.539,7.751,424.807,7.751L424.807,7.751L424.807,7.751z M379.043,26.084c0.106-0.195,0.223-0.403,0.346-0.618
			c0.018,0.086,0.046,0.172,0.086,0.254c0.1,0.2,0.195,0.417,0.277,0.627c-0.086-0.059-0.18-0.105-0.279-0.135L379.043,26.084
			L379.043,26.084z M330.83,66.025c0.416-0.224,0.918-0.468,1.407-0.662C331.768,65.573,331.288,65.795,330.83,66.025L330.83,66.025
			z"/>
	</g>
	<path fill="#999966" d="M352.635,49.77c0,0-0.948,1.423,0,1.423s3.161-0.633,4.109-1.423c0.947-0.79,3.002-3.635,3.16-4.425
		c0.158-0.791,0.633-3.161,1.422-5.057c0.791-1.896,2.529-5.057,3.951-6.638c1.423-1.581,3.951-4.267,4.899-4.741
		s4.268-2.687,4.741-3.951c0.475-1.264,0-2.371,0-2.371s-4.898,1.106-6.006,2.371c-1.105,1.265-3.16,3.161-3.16,3.161
		s3.318-6.164,5.689-7.586s3.951-2.054,4.425-2.845c0.474-0.79,0-2.054,0-2.054s-3.003,0.632-4.741,2.371
		c-1.738,1.738-8.06,9.008-9.324,12.327c-1.264,3.319-4.109,7.27-4.583,9.957c-0.474,2.687-0.632,5.057-1.896,6.953
		C354.057,49.138,352.635,49.77,352.635,49.77z"/>
	<path fill="none" d="M389.034,117.304c-0.177,0-0.357-0.024-0.536-0.074l-0.524-0.146c-2.479-0.693-3.975-1.112-9.728-1.688
		c-1.705-0.171-2.949-0.245-4.046-0.312c-2.876-0.173-4.461-0.268-8.639-1.865c-5.715-2.186-13.417-9.771-16.485-15.092
		c-2.903-5.036-3.734-11.182-3.92-15.451c-0.137-3.141,0.469-5.345,0.945-6.791c-0.775,0.082-1.546-0.296-1.946-0.993
		c-0.465-0.809-0.308-1.833,0.378-2.465c0.009-0.008,0.411-0.381,0.945-0.895c-0.347-0.796-0.14-1.734,0.526-2.311l3.477-3.002
		c0.836-0.723,2.1-0.629,2.821,0.207c0.62,0.718,0.64,1.752,0.102,2.487c0.062,0.09,0.12,0.188,0.173,0.294
		c0.368,0.734,0.267,1.683-0.28,2.294c-0.442,0.494-1.153,0.715-1.814,0.633c-0.036,0.041-0.072,0.082-0.109,0.123
		c0.052,0.077,0.101,0.16,0.146,0.248c0.153,0.3,0.499,1.192-0.165,2.172c0.077,0.381,0.078,0.854-0.099,1.409
		c-0.054,0.165-0.113,0.342-0.18,0.534c-0.416,1.218-1.046,3.059-0.923,5.882c0.167,3.823,0.89,9.291,3.389,13.627
		c2.678,4.645,9.573,11.489,14.449,13.354c3.603,1.378,4.729,1.445,7.45,1.609c1.078,0.064,2.419,0.146,4.204,0.323
		c6.098,0.61,7.812,1.09,10.406,1.815l0.518,0.145c1.064,0.296,1.688,1.397,1.392,2.462
		C390.714,116.724,389.91,117.304,389.034,117.304z"/>
	<path d="M389.034,116.303c-0.089,0-0.179-0.012-0.269-0.036l-0.522-0.146c-2.531-0.707-4.059-1.135-9.897-1.719
		c-1.726-0.173-3.034-0.251-4.085-0.314c-2.868-0.172-4.308-0.259-8.342-1.802c-5.525-2.112-12.992-9.48-15.977-14.657
		c-2.802-4.86-3.606-10.837-3.787-14.994c-0.147-3.389,0.622-5.639,1.082-6.983l0.045-0.135c-0.25-0.134-0.501-0.361-0.575-0.768
		c-0.003-0.015-0.005-0.03-0.007-0.045c-0.173,0.048-0.348,0.098-0.518,0.15c-0.443,0.137-0.928-0.053-1.16-0.458
		c-0.232-0.405-0.154-0.916,0.188-1.233c0.013-0.011,0.782-0.723,1.618-1.55c-0.163-0.09-0.303-0.227-0.396-0.4
		c-0.223-0.413-0.129-0.925,0.227-1.232l3.477-3.002c0.416-0.359,1.048-0.315,1.41,0.103c0.361,0.418,0.314,1.05-0.104,1.411
		l-0.647,0.559c0.519,0.049,0.722,0.274,0.889,0.606c0.184,0.367,0.142,0.874-0.132,1.18c-0.275,0.306-0.804,0.391-1.187,0.25
		c-0.028-0.011-0.076-0.021-0.102-0.021c-0.02,0.003-0.04,0.006-0.061,0.009c-0.089,0.025-0.214,0.106-0.4,0.321
		c-0.267,0.305-0.583,0.642-0.912,0.979c0.383,0.083,0.586,0.292,0.737,0.587c0.26,0.507,0.123,1.013-0.406,1.507
		c0.006,0.01,0.012,0.02,0.017,0.03c0.196,0.37,0.218,0.801,0.063,1.283c-0.051,0.158-0.109,0.329-0.173,0.515
		c-0.44,1.289-1.106,3.237-0.976,6.249c0.171,3.936,0.921,9.572,3.521,14.084c2.76,4.786,9.896,11.852,14.959,13.788
		c3.746,1.432,4.917,1.503,7.747,1.673c1.068,0.064,2.399,0.144,4.164,0.32c6.012,0.602,7.692,1.072,10.237,1.783l0.519,0.145
		c0.532,0.148,0.844,0.699,0.696,1.231C389.874,116.013,389.472,116.303,389.034,116.303z"/>
	<path fill="none" d="M350.789,67.734l-3.477,3.002c0,0,3.318-0.948,3.477-0.632c0.158,0.316-0.633-0.632-1.739,0.632
		c-1.106,1.265-3.16,3.161-3.16,3.161s4.129-1.265,2.46,0c-1.67,1.265,0.404,0.316,0,1.581c-0.406,1.264-1.354,3.477-1.195,7.112
		c0.158,3.634,0.83,9.64,3.654,14.539c2.824,4.898,10.094,12.168,15.468,14.223c5.373,2.055,5.847,1.423,12.169,2.055
		c6.322,0.633,7.744,1.106,10.588,1.896"/>
	<path fill="#F9F9F9" d="M350.256,70.058c-0.094,0.014-0.203,0.028-0.317,0.047C350.053,70.071,350.162,70.058,350.256,70.058z"/>
	<path fill="#999966" d="M401.801,40.474c0,0-0.535,0.807,0,0.807c0.533,0,1.779-0.358,2.314-0.807
		c0.533-0.447,1.69-2.061,1.779-2.508c0.089-0.448,0.356-1.792,0.801-2.867c0.445-1.076,1.425-2.867,2.226-3.763
		s2.225-2.419,2.759-2.688c0.534-0.269,2.402-1.523,2.67-2.24c0.268-0.716,0-1.344,0-1.344s-2.759,0.627-3.382,1.344
		c-0.624,0.717-1.78,1.792-1.78,1.792s1.869-3.494,3.205-4.3c1.335-0.807,2.225-1.165,2.491-1.613c0.267-0.448,0-1.165,0-1.165
		s-1.69,0.358-2.67,1.344c-0.979,0.985-4.54,5.107-5.251,6.988c-0.712,1.882-2.314,4.122-2.581,5.645
		c-0.267,1.522-0.356,2.867-1.067,3.941C402.602,40.116,401.801,40.474,401.801,40.474z"/>
	<path fill="none" stroke="#000000" stroke-linecap="round" stroke-miterlimit="10" d="M405.894,90.386c0,0,0.948,1.896,3.477,2.528
		c2.529,0.633,3.793-0.948,5.058,1.265c1.264,2.213,2.844,4.741,2.844,4.741"/>
	<path fill="none" stroke="#000000" stroke-linecap="round" stroke-miterlimit="10" d="M413.005,108.244
		c-1.474,0.854-4.507,0.363-7.427-0.315c-6.25-1.454-10.111-2.6-12.328-4.183c-2.212-1.58-9.166-4.669-12.676-10.041"/>
	<path fill="#FFFFFF" stroke="#000000" stroke-miterlimit="10" d="M362.749,66.127c0,0,0.712,5.334,1.897,6.875
		c1.184,1.541,2.725,2.963,5.096,3.674c2.371,0.711,4.148,0.948,6.756,0c2.607-0.948,5.453-3.437,5.927-3.556
		s0.948-2.371,0.948-2.371s0.441-1.304-1.439-2.252c-1.88-0.948-3.42-1.659-5.553-2.371c-2.135-0.711-4.979-1.186-6.994-1.067
		C367.371,65.179,362.749,66.127,362.749,66.127z"/>
	<path fill="#000B33" d="M366.61,65.606c0,0-1.411,2.022-0.938,4.709c0.278,1.574,1.738,3.161,2.608,3.635
		c0.868,0.474,1.896,1.283,3.713,1.273c2.219-0.011,3.531-0.588,3.951-0.957c0.988-0.869,1.402-1.756,1.659-2.924
		c0.356-1.62,0.356-2.805,0.04-3.438c-0.316-0.632-1.146-1.304-2.015-1.699c-0.87-0.395-3.083-1.185-4.347-1.106
		C370.02,65.179,366.61,65.606,366.61,65.606z"/>
	<path fill="#FFFFFF" stroke="#FFFFFF" stroke-linecap="square" stroke-linejoin="round" stroke-miterlimit="10" d="M363.566,66.036
		l-4.057,2.146l6.678-2.146c0,0-3.296,2.146-4.684,2.778c-1.387,0.632,6.938-2.778,6.938-2.778s-1.744,2.15-3.209,2.856
		c-1.465,0.707,4.163-2.856,4.163-2.856l-2.516,4.042c0,0,3.902-3.24,4.076-3.635c0.174-0.395,0.174-0.395,0.174-0.395l-0.694,3.213
		l1.648-3.226l-1.041,5.136l2.342-4.255v2.344l1.021-2.581l1.146,3.003l-0.434-2.608l1.821,2.529v-2.45l1.301,1.449
		c0,0,0.021-0.87-0.255-1.37c-0.126-0.229-0.51-0.711-0.51-0.711s-2.176-0.869-3.71-1.152c-1.534-0.282-3.105-0.328-3.105-0.328
		L363.566,66.036z"/>
	<g>
		<path fill="#FFFFFF" stroke="#000000" stroke-linejoin="round" stroke-miterlimit="10" d="M414.6,68.742
			c0,0-0.111,3.025-0.295,3.899s-0.424,1.681-0.791,2.084c-0.369,0.404-0.645,0.539-1.05,0c-0.405-0.537-0.847-1.949-0.921-2.017
			c-0.073-0.067-0.147-1.344-0.147-1.344c0,0.001-0.067-0.74,0.224-1.277c0.292-0.538,0.531-0.941,0.863-1.345
			c0.331-0.403,0.773-0.672,1.086-0.605S414.6,68.742,414.6,68.742z"/>
		<path fill="#000B33" d="M413.176,69.266c0,0,0.164,0.873,0.109,2.031c-0.033,0.679-0.203,1.363-0.305,1.567
			c-0.102,0.204-0.222,0.553-0.434,0.549c-0.26-0.004-0.413-0.253-0.462-0.413c-0.115-0.375-0.163-0.757-0.194-1.261
			c-0.041-0.698-0.041-1.209-0.004-1.482c0.037-0.272,0.134-0.562,0.235-0.732c0.102-0.17,0.36-0.511,0.507-0.477
			C412.777,69.082,413.176,69.266,413.176,69.266z"/>
		<path fill="#FFFFFF" stroke="#FFFFFF" stroke-linejoin="round" stroke-miterlimit="10" d="M415.078,67.724l0.871,1.384
			l-1.07-1.198c0,0,0.527,1.198,0.75,1.551s-1.111-1.551-1.111-1.551s0.279,1.201,0.515,1.595c0.233,0.394-0.668-1.595-0.668-1.595
			l0.403,2.257c0,0-0.625-1.81-0.653-2.03c-0.028-0.221-0.028-0.221-0.028-0.221l0.111,1.794l-0.264-1.801l-0.571,2.868
			l-0.375-2.375l0.737,1.309l-0.164-1.441l-0.184,1.677l0.07-1.457l-0.293,1.412v-1.368l-0.207,0.809v-0.765v-0.397
			c0,0,0.104-0.343,0.35-0.501c0.245-0.157,0.761-0.324,0.761-0.324L415.078,67.724z"/>
	</g>
	<path fill="none" stroke="#000000" stroke-width="5" stroke-miterlimit="10" d="M428.603,84.051
		c0,37.112-30.085,67.197-67.197,67.197c-37.111,0-67.196-30.085-67.196-67.197"/>
</g>
<g id="Calque_2">
	<path d="M31.495,122c-2.761,0-5.495-1.813-5.495-4.575V42.091C26,39.33,28.733,37,31.495,37h9.724C43.98,37,46,39.33,46,42.091V104
		h27.409c2.761,0,4.591,2.504,4.591,5.266v8.159c0,2.762-1.83,4.575-4.591,4.575H31.495z"/>
	<path fill="#FFCC99" d="M31.495,42.091h9.724v67.174h32.19v8.159H31.495V42.091z"/>
	<path d="M131.193,122c-2.142,0-4.045-1.017-4.734-3.044L119.563,99h-19.516l-6.691,19.915C92.68,120.964,90.766,122,88.608,122
		H78.549c-1.612,0-3.125-0.564-4.064-1.875s-1.188-2.889-0.67-4.415L99.41,40.384c0.689-2.028,2.593-3.384,4.734-3.384h11.736
		c2.139,0,4.041,1.406,4.732,3.431l25.708,75.356c0.521,1.527,0.273,3.011-0.666,4.323c-0.938,1.313-2.453,1.89-4.066,1.89H131.193z
		 M114.151,81l-4.38-12.874L105.415,81H114.151z"/>
	<path fill="#FFCC99" d="M96.433,93.729l-7.824,23.695H78.549l25.595-75.333h11.736l25.708,75.333h-10.395l-8.048-23.695H96.433z
		 M121.134,86.129l-7.377-21.684c-1.676-4.917-2.794-9.389-3.912-13.748h-0.223c-1.118,4.471-2.347,9.053-3.8,13.636l-7.377,21.795
		H121.134z"/>
	<path d="M217.593,122c-2.65,0-4.84-1.855-4.992-4.5l-1.9-32.979c-0.089-1.68-0.182-3.373-0.275-5.159
		c-0.325,0.901-14.289,39.31-14.289,39.31c-0.719,1.976-2.597,3.328-4.699,3.328h-7.377c-2.142,0-4.046-1.375-4.734-3.404
		l-12.183-35.883c-0.148-0.439-0.294-0.876-0.438-1.307c-0.075,1.346-0.152,2.685-0.231,4.015l-2.013,32.103
		c-0.164,2.636-2.35,4.477-4.99,4.477h-9.277c-1.387,0-2.711-0.363-3.656-1.377c-0.946-1.014-1.428-2.27-1.332-3.652l5.253-75.326
		c0.183-2.62,2.361-4.645,4.988-4.645h12.407c2.12,0,4.01,1.383,4.715,3.383l12.854,36.46c1.172,3.476,2.215,6.671,3.148,9.63
		c0.973-2.951,2.064-6.131,3.293-9.614L205.3,40.316c0.724-1.966,2.597-3.316,4.692-3.316h12.407c2.641,0,4.826,2.099,4.99,4.734
		l4.695,75.357c0.086,1.377-0.401,2.527-1.347,3.533c-0.944,1.006-2.264,1.375-3.644,1.375H217.593z"/>
	<path fill="#FFCC99" d="M215.693,84.341c-0.559-10.506-1.229-23.137-1.118-32.525h-0.335c-2.571,8.83-5.7,18.219-9.5,28.613
		l-13.301,36.549h-7.377L171.878,81.1c-3.577-10.619-6.594-20.342-8.718-29.284h-0.224c-0.224,9.389-0.782,22.019-1.453,33.308
		l-2.012,32.302h-9.277l5.253-75.333h12.407l12.854,36.438c3.129,9.277,5.7,17.547,7.601,25.372h0.335
		c1.9-7.601,4.583-15.871,7.936-25.372l13.412-36.438h12.407l4.695,75.333h-9.501L215.693,84.341z"/>
	<path d="M287.896,122c-2.142,0-4.046-1.017-4.734-3.044L276.267,99H256.75l-6.69,19.915c-0.677,2.049-2.591,3.085-4.748,3.085
		h-10.06c-1.612,0-3.126-0.564-4.064-1.875c-0.939-1.311-1.188-2.889-0.67-4.415l25.596-75.326c0.689-2.028,2.593-3.384,4.734-3.384
		h11.736c2.139,0,4.041,1.406,4.732,3.431l25.707,75.356c0.521,1.527,0.272,3.011-0.666,4.323s-2.453,1.89-4.066,1.89H287.896z
		 M270.854,81l-4.38-12.874L262.118,81H270.854z"/>
	<path fill="#FFCC99" d="M253.136,93.729l-7.824,23.695h-10.06l25.596-75.333h11.736l25.707,75.333h-10.395l-8.048-23.695H253.136z
		 M277.837,86.129l-7.377-21.684c-1.677-4.917-2.794-9.389-3.912-13.748h-0.224c-1.117,4.471-2.347,9.053-3.8,13.636l-7.377,21.795
		H277.837z"/>
</g>
</svg>
