<?xml version="1.0" encoding="utf-8"?>
<!-- Generator: Adobe Illustrator 16.0.0, SVG Export Plug-In . SVG Version: 6.00 Build 0)  -->
<!DOCTYPE svg PUBLIC "-//W3C//DTD SVG 1.1//EN" "http://www.w3.org/Graphics/SVG/1.1/DTD/svg11.dtd">
<svg version="1.1" xmlns="http://www.w3.org/2000/svg" xmlns:xlink="http://www.w3.org/1999/xlink" x="0px" y="0px" width="36px"
	 height="45px" viewBox="0 0 36 45" enable-background="new 0 0 36 45" xml:space="preserve">
<g id="Calque_1">
	<path fill="#C6C6C6" stroke="#000000" stroke-miterlimit="10" d="M24.203,22.85c0,1.382-0.367,2.682-1.018,3.814
		c-1.443,2.5-7.475,17.29-7.475,17.29s-6.036-14.792-7.473-17.29c-0.653-1.132-1.023-2.432-1.023-3.814
		c0-4.424,3.802-8.008,8.498-8.008C20.406,14.842,24.203,18.426,24.203,22.85z"/>
</g>
<g id="Calque_2" display="none">
	<path display="inline" d="M35.932,16.05c0.431-3.813-1.256-6.4-2.901-7.828c0.108-0.253,0.253-0.817,0.333-1.106
		c0.135-0.483,0.02-0.978-0.269-1.343c0.148-0.766-0.313-1.531-1.078-1.743L17.769,0.056c-0.764-0.213-1.556,0.2-1.824,0.933
		c-0.856,0.322-0.935,1.034-1.182,1.919c-0.02,0.07-0.022,0.141-0.032,0.211C12.583,3.49,9.8,4.833,8.195,8.316
		c-2.074,4.509-0.59,15.674,0.308,20.19c0.107,0.564,0.525,1.02,1.08,1.176c14.806,4.127-2.121-0.594,14.107,3.934
		c1.129,0.313,1.682-0.602,2.506-1.572C29.606,28.047,35.412,20.647,35.932,16.05z"/>
	<g display="inline">
		
			<rect x="16.669" y="3.441" transform="matrix(0.9633 0.2686 -0.2686 0.9633 2.2304 -6.2793)" fill="#FFFFCC" width="14.791" height="3.142"/>
	</g>
	<g display="inline">
		<path fill="#FF9900" d="M25.043,31.064c-0.586,0.693-0.946,1.094-0.946,1.094L9.988,28.225c0,0-0.101-0.531-0.245-1.426
			C9.131,23.055,7.721,12.963,9.569,8.948c2.286-4.966,6.95-4.407,6.95-4.407l14.248,3.972c0,0,4.274,1.934,3.664,7.367
			C33.933,20.272,27.505,28.178,25.043,31.064z"/>
	</g>
	<g display="inline">
		<path fill="#FFCC00" d="M30.767,8.513l-7.126-1.986l-6.598,23.665l7.054,1.967c0,0,0.36-0.4,0.946-1.094
			c2.462-2.887,8.89-10.792,9.388-15.185C35.041,10.446,30.767,8.513,30.767,8.513z"/>
	</g>
	<g display="inline">
		<path fill="#FFFFFF" d="M31.063,10.587c1.883,7-0.442,10.743-6.926,16.839c5.501-6.426,7.932-9.819,4.463-17.5L31.063,10.587z"/>
	</g>
	<polygon display="inline" points="19.5,19.916 19.41,28.704 12.454,33.013 5.587,28.532 5.677,19.745 12.632,15.436 	"/>
	<polygon display="inline" fill="#FF9900" points="6.462,27.992 6.541,20.308 12.622,16.542 18.625,20.458 18.547,28.14 
		12.465,31.907 	"/>
	<polygon display="inline" points="13.413,7.468 13.324,16.256 6.368,20.565 -0.5,16.085 -0.411,7.297 6.546,2.988 	"/>
	<polygon display="inline" fill="#FFCC00" points="0.375,15.543 0.454,7.86 6.535,4.094 12.538,8.01 12.46,15.692 6.378,19.459 	"/>
</g>
<g id="Calque_8">
	<ellipse cx="23.383" cy="11.071" rx="11.197" ry="11.071"/>
</g>
<g id="Calque_7">
	<g>
		<path fill="#5E1A64" d="M12.704,13.063c0.843,5.42,4.417,8.822,9.068,8.976c5.242,0.171,8.423-1.381,10.173-5.485
			C33.917,11.926,12.704,13.063,12.704,13.063z"/>
		<g>
			<g>
				<g>
					<path fill="#4C0B52" d="M29.846,19.991c-0.497,0.405-1.568,0.403-2.208,0.442c-0.679,0.042-1.365-0.288-2.043-0.222
						c-1.061,0.101-2.104,1.13-3.042,0.524c-0.651-0.422-0.777-1.409-1.362-1.938c-0.832-0.75-1.447-0.1-2.215-0.928
						c-0.916-0.989-0.102-2.263-0.89-3.369c-0.449-0.634-1.359-1.091-1.26-2.327c0.042-0.523,0.737-1.277,0.904-1.764
						c0.214-0.625-0.056-1.04,0.032-1.707c0.117-0.873,0.391-1.342,1.959-1.86c0.928-0.305,1.222-0.381,1.453-1.392
						C21.464,4.187,22,4.079,22.503,4.101c0.644,0.029,0.907,0.225,1.524,0.205c0.937-0.031,1.236-1.031,2.213-0.779
						c1.058,0.272,1.172,1.113,2.053,1.642c0.494,0.296,1.088,0.228,1.614,0.462c0.667,0.298,1.262,0.783,1.684,1.418
						c0.83,1.247,1.191,2.306,1.406,3.783C33.534,14.507,32.312,17.986,29.846,19.991z"/>
				</g>
			</g>
		</g>
		<g>
			<g>
				<g>
					<path fill="#5E1A64" d="M19.932,2.746c-0.595,0.247-1.216,0.5-1.583,1.019c-0.388,0.553-0.46,1.305-0.868,1.843
						c-0.639,0.844-2.071,1.19-2.034,2.297c0.025,0.771,0.813,1.389,0.966,2.157c0.217,1.094-0.667,1.275-0.349,2.354
						c0.379,1.287,1.902,1.262,2.449,2.501c0.314,0.709,0.237,1.717,1.355,2.273c0.475,0.236,1.487,0.042,1.994,0.153
						c0.652,0.143,0.87,0.588,1.492,0.86c0.814,0.355,1.362,0.368,2.625-0.688c0.747-0.625,0.965-0.835,1.957-0.504
						c1.244,0.414,1.616,0.016,1.858-0.42c0.309-0.558,0.277-0.883,0.616-1.395c0.513-0.776,1.532-0.509,1.823-1.465
						c0.313-1.034-0.354-1.568-0.354-2.587c0.001-0.571,0.369-1.038,0.439-1.604c0.088-0.717-0.205-1.734-0.534-2.42
						c-0.646-1.35-1.647-2.843-3.877-4.122C25.329,1.517,22.353,1.745,19.932,2.746z"/>
				</g>
			</g>
		</g>
		<g>
			<g>
				<path fill="#882980" d="M14.512,5.795c0.375-0.584,0.831-1.155,1.466-1.443c0.676-0.309,1.479-0.264,2.144-0.594
					c1.044-0.516,1.769-1.911,2.914-1.702c0.799,0.146,1.245,1.041,2.008,1.314c1.088,0.39,1.501-0.475,2.548,0.015
					c1.248,0.584,0.836,2.123,1.992,2.87c0.661,0.428,1.733,0.507,2.03,1.729c0.127,0.517-0.332,1.512-0.345,2.044
					c-0.015,0.682,0.394,0.973,0.521,1.645c0.165,0.882,0.039,1.438-1.384,2.553c-0.843,0.659-1.116,0.847-1.021,1.905
					c0.116,1.324-0.393,1.639-0.909,1.816c-0.662,0.227-0.993,0.143-1.613,0.406c-0.939,0.399-0.919,1.474-1.99,1.618
					c-1.159,0.157-1.549-0.602-2.614-0.761c-0.596-0.087-1.176,0.213-1.785,0.195c-0.773-0.022-1.533-0.251-2.167-0.692
					c-1.246-0.865-2.29-2.001-2.958-3.345C12.029,12.714,12.662,8.686,14.512,5.795z"/>
			</g>
			<g>
				<path fill="#9A4398" d="M22.649,14.85c0.225-0.757-0.209-1.449-0.438-2.204c-0.249-0.825,0.171-1.894-0.475-2.471
					c-0.438-0.39-1.142-0.304-1.633-0.627c-0.637-0.421-0.758-1.419-1.469-1.696c-0.733-0.286-1.441,0.395-2.123,0.786
					c-0.639,0.369-1.363-0.12-2.011,0.234c-0.855,0.467-1.468,1.483-1.827,2.45c-0.106,1.472,0.098,2.89,0.673,4.046
					c0.668,1.344,1.711,2.48,2.958,3.345c0.642,0.446,1.389,0.667,2.153,0.69c0.087-0.421,0.165-0.832,0.609-0.982
					c0.592-0.203,1.352,0.019,1.792-0.422c0.405-0.405,0.25-1.102,0.521-1.604C21.75,15.711,22.428,15.592,22.649,14.85z"/>
			</g>
			<path fill="#FFECD2" d="M22.208,5.032c-0.099,0.072-0.194,0.148-0.285,0.228c-0.092,0.079-0.178,0.165-0.266,0.247
				c-0.085,0.086-0.168,0.172-0.249,0.261c-0.076,0.093-0.158,0.181-0.23,0.275c-0.07,0.096-0.147,0.187-0.213,0.286
				c-0.064,0.1-0.132,0.197-0.194,0.297l-0.173,0.308c-0.057,0.103-0.103,0.212-0.153,0.317c-0.053,0.104-0.09,0.214-0.129,0.324
				c-0.038,0.11-0.086,0.216-0.111,0.33L20.11,8.239c-0.028,0.111-0.041,0.227-0.063,0.34C20.028,8.693,20.003,8.806,20,8.922
				l-0.024,0.345c-0.016,0.114-0.002,0.231-0.004,0.346l0.006,0.347l0.002,0.144l-0.111,0.097l-1.118,0.972
				c-0.369,0.325-0.742,0.651-1.096,0.982l0.013-0.469c0.113,0.112,0.254,0.238,0.391,0.351c0.138,0.116,0.281,0.226,0.429,0.332
				c0.146,0.107,0.296,0.208,0.449,0.306s0.31,0.189,0.468,0.278c0.159,0.087,0.319,0.171,0.484,0.248
				c0.164,0.076,0.331,0.15,0.5,0.216c0.083,0.036,0.168,0.066,0.254,0.096c0.085,0.03,0.171,0.062,0.259,0.086
				c0.173,0.058,0.348,0.104,0.525,0.149c0.177,0.039,0.354,0.08,0.534,0.104c0.181,0.034,0.362,0.044,0.545,0.066
				c0.183,0.011,0.365,0.026,0.549,0.022c0.185,0.006,0.367-0.011,0.552-0.019c0.093-0.006,0.185-0.018,0.276-0.026
				c0.093-0.008,0.185-0.019,0.276-0.036l0.275-0.044l0.273-0.059c0.186-0.034,0.363-0.089,0.546-0.138
				c0.182-0.048,0.357-0.117,0.54-0.17c-0.165,0.089-0.331,0.183-0.504,0.264c-0.174,0.076-0.347,0.16-0.527,0.222
				c-0.091,0.034-0.18,0.068-0.271,0.098l-0.278,0.081c-0.092,0.03-0.186,0.052-0.279,0.072c-0.095,0.021-0.188,0.045-0.284,0.063
				c-0.191,0.028-0.383,0.064-0.576,0.076c-0.194,0.022-0.39,0.026-0.585,0.033c-0.194-0.002-0.391-0.005-0.586-0.026
				c-0.195-0.012-0.389-0.043-0.583-0.071c-0.192-0.036-0.386-0.071-0.575-0.121c-0.097-0.023-0.189-0.051-0.283-0.08
				c-0.095-0.027-0.189-0.057-0.28-0.089c-0.372-0.125-0.732-0.282-1.081-0.46c-0.174-0.09-0.344-0.186-0.511-0.287
				c-0.167-0.102-0.332-0.207-0.491-0.32c-0.16-0.113-0.316-0.231-0.468-0.356c-0.153-0.127-0.296-0.248-0.449-0.402l-0.236-0.239
				l0.25-0.23c0.371-0.342,0.748-0.668,1.129-0.987c0.191-0.161,0.382-0.319,0.577-0.476c0.193-0.156,0.386-0.313,0.583-0.467
				l-0.108,0.24l0.012-0.38c0.007-0.126,0-0.253,0.023-0.378l0.054-0.375c0.012-0.126,0.048-0.249,0.077-0.372
				c0.033-0.123,0.057-0.247,0.097-0.366l0.125-0.358c0.038-0.122,0.103-0.231,0.153-0.347c0.054-0.113,0.106-0.229,0.175-0.334
				c0.065-0.108,0.125-0.218,0.195-0.322l0.218-0.307c0.08-0.097,0.162-0.191,0.242-0.285c0.082-0.096,0.174-0.181,0.259-0.27
				c0.086-0.089,0.184-0.168,0.276-0.25c0.097-0.08,0.194-0.155,0.293-0.229C21.774,5.267,21.984,5.136,22.208,5.032z"/>
			<path fill="#FFECD2" d="M15.963,7.165c-0.142,0.285-0.264,0.576-0.376,0.87c-0.109,0.293-0.212,0.589-0.293,0.89
				c-0.041,0.15-0.082,0.299-0.116,0.45c-0.034,0.15-0.063,0.301-0.088,0.454c-0.048,0.303-0.086,0.606-0.096,0.909
				c-0.012,0.303,0.006,0.604,0.042,0.899c0.037,0.296,0.103,0.586,0.194,0.866c0.183,0.561,0.482,1.076,0.867,1.527l0.153,0.178
				l-0.12,0.202l-0.513,0.861l-0.02-0.363c0.068,0.085,0.163,0.192,0.25,0.285c0.092,0.096,0.188,0.189,0.287,0.279
				c0.197,0.181,0.406,0.352,0.625,0.508c0.219,0.159,0.446,0.305,0.683,0.438c0.118,0.068,0.237,0.131,0.359,0.192
				c0.123,0.059,0.245,0.119,0.372,0.169c0.125,0.056,0.253,0.101,0.382,0.149c0.13,0.044,0.258,0.094,0.391,0.129
				c0.131,0.042,0.265,0.075,0.399,0.108c0.135,0.032,0.271,0.06,0.407,0.087c0.137,0.023,0.273,0.051,0.411,0.065
				c0.14,0.02,0.278,0.033,0.419,0.046c0.14,0.017,0.28,0.017,0.422,0.027c0.142,0.008,0.282,0.006,0.426,0.013
				c-0.139,0.028-0.279,0.057-0.421,0.079c-0.142,0.018-0.284,0.041-0.427,0.049l-0.216,0.017c-0.072,0.005-0.144,0.004-0.216,0.006
				c-0.146,0.005-0.288-0.001-0.434-0.005c-0.145-0.005-0.29-0.017-0.435-0.035c-0.145-0.018-0.289-0.037-0.432-0.064
				c-0.145-0.023-0.287-0.058-0.43-0.089c-0.14-0.04-0.282-0.078-0.421-0.125c-0.139-0.044-0.276-0.097-0.414-0.149
				c-0.136-0.055-0.271-0.112-0.404-0.175c-0.133-0.064-0.264-0.131-0.392-0.205c-0.128-0.072-0.256-0.147-0.379-0.228
				c-0.123-0.081-0.243-0.166-0.362-0.254c-0.118-0.088-0.234-0.18-0.346-0.277c-0.111-0.098-0.22-0.198-0.326-0.303
				c-0.108-0.108-0.204-0.209-0.311-0.343l-0.134-0.171l0.113-0.193l0.509-0.864l0.033,0.381c-0.438-0.515-0.775-1.124-0.958-1.773
				c-0.092-0.325-0.148-0.658-0.171-0.991c-0.025-0.333-0.011-0.666,0.027-0.992c0.038-0.327,0.098-0.65,0.187-0.962
				c0.044-0.156,0.092-0.312,0.146-0.465c0.054-0.152,0.109-0.304,0.174-0.452c0.129-0.296,0.27-0.585,0.432-0.862
				C15.586,7.682,15.762,7.413,15.963,7.165z"/>
			<g>
				<path fill="#FFECD2" d="M25.48,8.367c-8.529-0.44-11.587,7.894-11.597,7.918c0.336,0.5,0.726,0.962,1.158,1.385
					C16.826,9.089,25.48,8.367,25.48,8.367z"/>
			</g>
		</g>
	</g>
</g>
<g id="Calque_4">
	<g id="Calque_5_-_copie">
		<g>
			<path fill="#31A444" d="M15.483,28.45c3.618-1.027,6.329-4.734,7.725-8c0.451-1.055,1.178-3.574,0.279-4.962
				c0.149,0.04,0.276,0.079,0.334,0.166c-0.072-0.244-0.179-0.458-0.302-0.653c-0.011-0.017-0.02-0.036-0.03-0.052
				c-0.123-0.184-0.265-0.34-0.416-0.477c-0.017-0.015-0.032-0.03-0.049-0.044c-0.156-0.134-0.321-0.241-0.488-0.324
				c-0.011-0.005-0.021,0.03-0.032,0.025C22.328,14.044,22.162,14,21.994,14H22v-0.087c0,0-0.17-0.657,0.35-1.188
				c0.375-0.383,0.667-0.446,0.667-0.446s0.201-0.286-0.25-0.431c-1.323,0.511-0.945,2.033-0.945,2.033
				C21.823,13.884,22,13.886,22,13.889c0,0.002,0,0.003,0,0.005c-1-0.008-1.266,0.166-1.843,0.372
				c-0.404,0.145-0.751,0.095-0.751,0.095s0.188,0.193,0.562,0.244c-0.729,0.424-1.308,1.147-1.574,1.807
				c-0.425,1.051-1.069,3.458-1.488,4.501c-0.663,1.646-1.573,3.619-3.183,4.818c-1.365,1.018-3.792,2.302-5.9,2.798
				C7.599,28.582,7.508,29,7.53,29c-0.002,0-0.004,0-0.006,0c0.005,0,0.035,0.035,0.053,0.076c0.016,0.033,0.02,0.052,0.046,0.08
				c0.058,0.064,0.138,0.102,0.245,0.113C9.599,29.463,12.143,29.399,15.483,28.45z"/>
			<path d="M35.173,18.934c-0.023-0.102-0.053-0.198-0.085-0.295c-0.05-0.167-0.103-0.333-0.161-0.476
				c-0.043-0.108-0.091-0.21-0.148-0.323c-0.062-0.129-0.125-0.257-0.186-0.36c-0.063-0.111-0.133-0.214-0.223-0.346
				c-0.024-0.036-0.05-0.072-0.075-0.108c0.086-0.057,0.167-0.121,0.243-0.191c0.544-0.5,0.819-1.233,0.737-1.963
				c-0.051-0.449-0.287-1.288-1.3-1.866c-0.304-0.173-0.646-0.263-0.991-0.263c-0.107,0-0.215,0.009-0.321,0.026
				c-1.475,0.24-2.496,1.14-3.08,2.204c-0.292,0.021-0.556,0.06-0.813,0.097l-0.332,0.042c-0.182-0.052-0.366-0.077-0.55-0.077
				c-0.61,0-1.205,0.28-1.592,0.789c-0.21,0.275-0.339,0.592-0.388,0.917c-0.004,0.003-0.008,0.007-0.012,0.011
				c-0.019-0.26-0.048-0.52-0.101-0.776c0.047-0.29,0.031-0.593-0.058-0.891c-0.119-0.402-0.292-0.78-0.482-1.075
				c-0.027-0.05-0.073-0.126-0.105-0.174c-0.124-0.186-0.264-0.363-0.417-0.53c0.342-0.562,0.423-1.253,0.213-1.877
				c-0.234-0.699-0.807-1.24-1.569-1.484c-0.199-0.063-0.404-0.095-0.61-0.095c-0.244,0-0.488,0.045-0.72,0.134
				c-1.118,0.431-1.798,1.28-2.099,2.229c-0.082,0.029-0.164,0.06-0.246,0.091l-0.119,0.056c-0.118-0.022-0.234-0.033-0.349-0.033
				c-0.687,0-1.295,0.387-1.66,1.023c-0.169,0.295-0.242,0.623-0.232,0.95c-0.334,0.422-0.609,0.886-0.802,1.365
				c-0.246,0.608-0.52,1.495-0.81,2.434c-0.248,0.802-0.503,1.631-0.68,2.071c-0.592,1.471-1.354,3.091-2.522,3.961
				c-1.208,0.9-3.369,2.032-5.165,2.455c-1.043,0.246-1.624,1.148-1.787,1.962C5.542,28.691,5.524,28.844,5.524,29
				c0,0.424,0.132,0.817,0.357,1.141c0.076,0.127,0.166,0.253,0.251,0.349c0.322,0.36,0.755,0.602,1.233,0.711
				c-0.248,0.335-0.447,0.781-0.508,1.417C6.844,32.705,6.836,33,6.835,33h0.003c-0.004,0-0.007,0.027-0.007,0.1
				c0,0.531,0.211,0.934,0.586,1.309c0.343,0.343,0.797,0.553,1.278,0.587c2.379,0.768,5.099,1.156,8.086,1.156
				c0.818,0,1.666-0.029,2.519-0.089c7.063-0.488,12.169-7.027,13.565-9.02c0.449-0.641,2.337-3.508,2.284-6.35
				c0.124-0.289,0.181-0.611,0.154-0.943C35.281,19.473,35.235,19.19,35.173,18.934z"/>
		</g>
	</g>
	<g id="Calque_5">
		<g>
			<g>
				<g>
					<g>
						<path fill="#E12727" d="M7.868,30.259c-0.435-0.049-0.475-0.67-0.049-0.771c2.109-0.496,4.533-1.738,5.898-2.756
							c1.61-1.199,2.514-3.172,3.177-4.818c0.419-1.043,1.053-3.451,1.478-4.501c0.593-1.467,2.617-3.264,4.795-1.331
							c1.396,1.237,0.539,4.204,0.041,5.37c-1.396,3.266-4.106,6.973-7.725,8C12.143,30.399,9.599,30.452,7.868,30.259z"/>
					</g>
					<g>
						<g>
							<path fill="#E55D42" d="M15.353,26.798c1.405-1.141,2.659-2.852,3.457-4.836c0.222-0.549,0.479-1.397,0.754-2.294
								c0.257-0.84,0.507-1.716,0.724-2.206c0.551-1.252,1.026-1.438,1.026-1.438c-1.091-0.072-1.938,0.993-2.218,1.682
								c-0.201,0.497-0.466,1.366-0.723,2.207c-0.274,0.897-0.548,1.738-0.754,2.294c-1.739,4.695-5.623,6.225-6.586,6.479
								C12.478,28.462,14.058,27.851,15.353,26.798z"/>
						</g>
					</g>
					<g>
						<path fill="#CC2322" d="M23.208,21.45c0.498-1.166,1.354-4.132-0.041-5.37c-0.597-0.529-1.182-0.777-1.729-0.831l0,0
							c1.79,0.52,1.001,4.26-0.422,7.167c-2.412,4.926-8.083,8.008-13.492,7.498c0.02,0.166,0.137,0.32,0.344,0.344
							c1.731,0.193,4.274,0.141,7.615-0.809C19.102,28.423,21.813,24.716,23.208,21.45z"/>
					</g>
				</g>
				<path fill="#37B34A" d="M22.664,17.079c0,0-0.132-0.441-0.47-0.641c-0.338-0.2-0.445-0.582-0.445-0.582
					c0.06,0.752-1.305,0.816-1.305,0.816s0.191-0.188,0.147-0.588c-0.045-0.399,0.13-0.502,0.13-0.502s0,0-0.534,0.04
					c-0.535,0.04-0.869-0.262-0.869-0.262s0.258,0.05,0.662-0.095c0.625-0.223,1.012-0.418,1.832-0.374
					c0.714,0.039,1.677,0.644,2.009,1.762c-0.1-0.152-0.404-0.155-0.688-0.276c-0.173-0.073-0.395-0.313-0.395-0.313
					S22.93,16.458,22.664,17.079z"/>
				<path fill="#31A444" d="M23.821,16.654c-0.307-1.031-1.146-1.62-1.836-1.736v-0.005c0,0-0.162-0.657,0.356-1.188
					c0.375-0.383,0.671-0.446,0.671-0.446s0.203-0.286-0.248-0.431c-1.323,0.511-1.121,2.033-1.121,2.033
					c0.002,0.003,0.002,0.005,0.002,0.008c0.312,0.959-0.782,1.311-0.782,1.311s-0.199-0.301-0.142-0.617
					c0,0-0.036,0.023-0.071,0.084c-0.042,0.073-0.083,0.2-0.059,0.418c0.044,0.399-0.147,0.588-0.147,0.588s1.364-0.064,1.305-0.816
					c0,0,0.107,0.382,0.445,0.581c0.338,0.2,0.47,0.642,0.47,0.642c0.266-0.621,0.075-1.014,0.075-1.014s0.222,0.239,0.395,0.313
					C23.417,16.499,23.722,16.501,23.821,16.654z"/>
			</g>
			<g>
				<g>
					<g>
						<path fill="#E12727" d="M9.18,34.046c-0.545-0.182-0.428-0.988,0.146-1.002c2.838-0.068,6.282-1.006,8.307-1.941
							c2.388-1.102,4.081-3.387,5.375-5.318c0.82-1.227,2.281-4.143,3.109-5.375c1.157-1.721,4.237-3.479,6.51-0.412
							c1.455,1.964-0.445,5.537-1.398,6.896c-2.671,3.811-7.148,7.832-12.065,8.172C14.623,35.38,11.347,34.763,9.18,34.046z"/>
					</g>
					<g>
						<g>
							<path fill="#E55D42" d="M19.712,31.63c2.109-1.082,4.179-2.939,5.738-5.268c0.432-0.645,0.992-1.662,1.586-2.738
								c0.557-1.008,1.113-2.063,1.523-2.634c1.045-1.455,1.705-1.567,1.705-1.567c-1.379-0.387-2.755,0.751-3.298,1.559
								c-0.392,0.583-0.967,1.625-1.522,2.635c-0.594,1.074-1.173,2.08-1.587,2.736c-3.498,5.553-8.89,6.465-10.195,6.531
								C15.576,32.987,17.767,32.63,19.712,31.63z"/>
						</g>
					</g>
					<g>
						<path fill="#CC2322" d="M31.228,26.894c0.953-1.359,2.854-4.932,1.398-6.896c-0.623-0.84-1.306-1.316-1.993-1.532h-0.001
							c2.156,1.148,0.135,5.733-2.477,9.077c-4.422,5.664-12.526,8.084-19.324,5.971c-0.02,0.217,0.088,0.447,0.349,0.533
							c2.167,0.717,5.443,1.334,9.982,1.02C24.079,34.726,28.557,30.704,31.228,26.894z"/>
					</g>
				</g>
				<path fill="#37B34A" d="M31.711,21.142c0,0-0.05-0.603-0.429-0.949c-0.38-0.347-0.414-0.867-0.414-0.867
					c-0.127,0.98-1.894,0.694-1.894,0.694s0.296-0.189,0.347-0.713c0.052-0.523,0.303-0.608,0.303-0.608s0,0-0.696-0.093
					c-0.696-0.094-1.042-0.57-1.042-0.57s0.316,0.133,0.873,0.057c0.861-0.117,1.41-0.263,2.451,0.016
					c0.904,0.242,1.975,1.277,2.1,2.802c-0.088-0.223-0.477-0.31-0.807-0.54c-0.202-0.142-0.421-0.508-0.421-0.508
					S32.22,20.417,31.711,21.142z"/>
				<path fill="#31A444" d="M33.31,20.91c-0.115-1.406-1.033-2.387-1.886-2.723l0.002-0.007c0,0-0.03-0.886,0.777-1.426
					c0.585-0.391,0.981-0.392,0.981-0.392s0.338-0.312-0.201-0.619c-1.836,0.299-1.986,2.305-1.986,2.305c0,0.004,0,0.007,0,0.011
					c0.14,1.313-1.359,1.469-1.359,1.469s-0.174-0.439-0.014-0.829c0,0-0.053,0.021-0.113,0.088
					c-0.074,0.082-0.161,0.234-0.189,0.521c-0.051,0.523-0.347,0.713-0.347,0.713s1.767,0.286,1.894-0.694
					c0,0,0.034,0.521,0.414,0.867c0.379,0.347,0.429,0.949,0.429,0.949c0.509-0.726,0.371-1.28,0.371-1.28s0.22,0.366,0.421,0.508
					C32.833,20.6,33.222,20.687,33.31,20.91z"/>
			</g>
		</g>
	</g>
	<g>
		<path d="M11.919,34.193c-0.743,0-1.429-0.449-1.714-1.159c-0.278-0.696-0.105-1.478,0.406-1.991
			c-0.031-0.014-0.062-0.027-0.094-0.04c-0.201-0.08-0.413-0.152-0.629-0.228c-0.627-0.216-1.336-0.46-2-0.888
			c-1.352-0.871-2.951-2.216-3.314-4.905c-0.276-2.044,0.477-4.654,3.221-6.192C7.701,18.623,7.6,18.448,7.49,18.263
			c-0.24-0.132-0.467-0.304-0.673-0.511c-0.071-0.018-0.146-0.026-0.216-0.039c-0.773-0.143-1.374-0.426-1.795-0.846
			c-0.584-0.141-1.114-0.439-1.517-0.868c-0.138-0.146-0.258-0.304-0.36-0.473c-0.551-0.251-1.027-0.667-1.332-1.197
			c-0.11-0.188-0.194-0.388-0.253-0.591c-0.397-0.318-0.718-0.744-0.907-1.235C0.246,12.006,0.208,11.49,0.314,11
			c-0.27-0.716-0.286-1.563,0.167-2.4c0.493-0.909,1.335-1.452,2.331-1.507c0.33-0.287,0.721-0.501,1.148-0.622
			C3.923,6.324,3.897,6.171,3.882,6.013C3.779,4.979,4.15,4.036,4.852,3.38c0.04-0.474,0.186-0.698,0.438-1.114
			C5.852,1.34,6.871,1,7.951,1c0.012,0,0.022,0,0.033,0c0.492-1,1.121-0.917,1.854-0.917c0.35,0,0.704-0.055,1.053,0.069
			c0.957,0.342,1.54,0.978,1.822,1.745c0.598,0.411,1.015,1.024,1.148,1.813c0.041,0.247,0.053,0.479,0.037,0.72
			c0.545-0.479,1.258-0.77,2.045-0.77c0.578,0,1.126,0.153,1.598,0.437c0.158-0.026,0.325-0.043,0.498-0.043
			c0.871,0,1.673,0.385,2.26,1.085c0.654,0.779,0.806,1.674,0.66,2.478c0.269,0.574,0.329,1.233,0.149,1.895
			c-0.125,0.458-0.352,0.871-0.646,1.212c-0.021,0.335-0.104,0.672-0.249,0.997c-0.234,0.523-0.611,0.962-1.066,1.276
			c-0.104,0.309-0.258,0.6-0.461,0.865c-0.328,0.428-0.762,0.763-1.254,0.981c-0.494,0.807-1.348,1.15-1.713,1.297
			c-0.094,0.038-0.226,0.092-0.299,0.129c-0.184,0.291-0.405,0.542-0.655,0.745c-0.077,0.221-0.146,0.429-0.212,0.627
			c0.145,0.021,0.277,0.044,0.403,0.072c0.103,0.022,0.198,0.05,0.294,0.079c0.313,0.087,0.574,0.166,0.812,0.262
			c0.099,0.041,0.182,0.082,0.265,0.125c0.264,0.125,0.5,0.244,0.711,0.38c0.086,0.055,0.164,0.112,0.239,0.173
			c0.203,0.145,0.41,0.305,0.593,0.479c0.066,0.063,0.125,0.126,0.182,0.19c0.166,0.174,0.332,0.358,0.477,0.556
			c0.033,0.045,0.113,0.167,0.143,0.215c0.123,0.186,0.251,0.389,0.357,0.602c0.022,0.045,0.08,0.174,0.099,0.221
			c0.088,0.191,0.178,0.4,0.248,0.615c0.022,0.067,0.044,0.146,0.064,0.225c0.058,0.196,0.113,0.401,0.153,0.611
			c0.014,0.073,0.025,0.153,0.035,0.235c0.032,0.207,0.06,0.399,0.072,0.59c0.006,0.076,0.008,0.158,0.009,0.24
			c0.008,0.24,0.012,0.397,0.005,0.552c-0.002,0.086-0.011,0.173-0.02,0.261l-0.008,0.102c-0.01,0.134-0.022,0.268-0.04,0.394
			c-0.016,0.107-0.036,0.209-0.059,0.311l-0.021,0.104c-0.019,0.101-0.038,0.201-0.063,0.295c-0.039,0.151-0.082,0.28-0.127,0.408
			c-0.038,0.121-0.066,0.204-0.096,0.279c-0.095,0.235-0.202,0.452-0.315,0.642c-0.633,1.048-1.122,1.475-1.688,1.968
			c-0.221,0.192-0.48,0.419-0.813,0.744l-0.164,0.157c-0.348,0.332-0.505,0.492-0.6,0.787c-0.258,0.805-0.518,1.331-0.992,2.01
			c-0.895,1.28-2.186,1.589-2.436,1.638C12.155,34.183,12.036,34.193,11.919,34.193z"/>
	</g>
</g>
<g id="Calque_3">
	<g>
		<g>
			<g>
				<path fill="#00873E" d="M11.256,9.261c0.694-0.328,1.223-1.357,0.438-2.132c0.662-0.265,1.024-1.65-0.13-2.026
					c0.678-0.238,0.785-1.911-0.506-1.914c0,0,0.154-1.077-0.79-1.415C9.146,1.372,8.696,2.615,8.696,2.615
					c-1.1-0.757-2.521,0.4-1.827,1.733C5.148,4.733,5.603,6.833,6.584,6.854C5.203,8.185,6.37,9.268,7.176,9.309
					c-1.088,1.399,0.586,1.78,1.193,2.205c0.185,0.129,0.36,0.248,0.774,0.911c0.521,0.836,1.311,0.472,1.319-0.423
					C10.476,10.741,12.033,10.334,11.256,9.261z"/>
				<path fill="#007B38" d="M9.534,4.19c0,0-1.177,3.628,1.003,13.872c0.149,0.699,0.377,1.271,0.541,1.766
					c0.08,0.238,0.439,0.137,0.38-0.109c-0.329-1.35-1.271-6.166-1.477-8.072C9.448,6.719,9.534,4.19,9.534,4.19z"/>
			</g>
			<g>
				<path fill="#31A444" d="M15.95,13.281c0.765,0.068,1.743-0.552,1.457-1.616c0.706,0.105,1.718-0.907,0.912-1.814
					c0.705,0.136,1.644-1.253,0.53-1.909c0,0,0.678-0.852,0.033-1.619c-0.766-0.915-1.781-0.069-1.781-0.069
					c-0.566-1.208-2.377-0.929-2.453,0.572c-1.68-0.538-2.348,1.503-1.513,2.017c-1.863,0.451-1.404,1.976-0.729,2.418
					c-1.646,0.657-0.395,1.831-0.085,2.505c0.095,0.205,0.187,0.396,0.208,1.179c0.027,0.984,0.893,1.069,1.352,0.301
					C14.529,14.165,16.078,14.602,15.95,13.281z"/>
				<path fill="#00873E" d="M16.959,7.849c0,0-3.389,4.027-4.973,10.168c-0.183,0.707-0.324,1.315-0.434,1.836
					c-0.054,0.254,0.314,0.35,0.389,0.102c0.408-1.362,0.638-2.367,1.314-4.207C15.006,10.991,16.959,7.849,16.959,7.849z"/>
			</g>
			<g>
				<path fill="#31A444" d="M5.922,15.058c-0.658,0.196-1.626-0.173-1.566-1.157c-0.599,0.219-1.668-0.488-1.125-1.428
					c-0.594,0.246-1.666-0.804-0.806-1.579c0,0-0.747-0.626-0.32-1.415c0.509-0.938,1.55-0.379,1.55-0.379
					c0.281-1.162,1.919-1.24,2.253,0.063c1.377-0.772,2.329,0.898,1.688,1.498c1.716,0.063,1.585,1.481,1.073,1.99
					c1.561,0.282,0.673,1.537,0.521,2.181c-0.045,0.197-0.092,0.383,0.029,1.071C9.373,16.772,8.629,17,8.089,16.41
					C7.327,15.578,6.046,16.238,5.922,15.058z"/>
				<path fill="#00873E" d="M4.066,10.474c0,0,3.692,2.925,6.18,8.026c0.287,0.588,0.521,1.098,0.711,1.533
					c0.092,0.213-0.216,0.363-0.325,0.159c-0.603-1.122-0.983-1.962-1.905-3.454C6.342,12.879,4.066,10.474,4.066,10.474z"/>
			</g>
		</g>
		<g>
			<g>
				<path fill="#DD1F3B" d="M6.404,24.735c0.265,1.961,1.408,2.906,2.484,3.6c1.088,0.699,2.674,0.829,3.393,1.613
					c0.584,0.633,0.44,1.886-0.361,2.398c0,0,0.762-0.148,1.275-0.884c0.371-0.532,0.546-0.888,0.748-1.519
					c0.273-0.846,0.791-1.269,1.23-1.698c1.145-1.119,1.502-1.17,2.209-2.343c1.072-1.783,0.952-7.751-6.335-6.325
					C7.318,20.307,6.122,22.645,6.404,24.735z"/>
			</g>
			<g>
				<path fill="#C91A35" d="M11.388,19.52c4.956,0.279,4.896,5.245,3.954,6.942c-1.416,2.55-3.627,2.847-4.141,2.826
					c0.432,0.17,0.816,0.371,1.08,0.66c0.584,0.633,0.44,1.886-0.361,2.398c0,0,0.762-0.148,1.275-0.884
					c0.371-0.532,0.546-0.888,0.748-1.519c0.273-0.846,0.791-1.269,1.23-1.698c1.145-1.119,1.502-1.17,2.209-2.343
					C18.438,24.149,18.334,18.348,11.388,19.52z"/>
			</g>
		</g>
	</g>
</g>
</svg>
